<svg width="44" height="44" viewBox="0 0 44 44" fill="none" xmlns="http://www.w3.org/2000/svg">
<path d="M34.1004 23.0998C33.0126 23.0998 31.9492 23.4224 31.0448 24.0267C30.1403 24.6311 29.4353 25.4901 29.0191 26.495C28.6028 27.5 28.4939 28.6059 28.7061 29.6728C28.9183 30.7397 29.4421 31.7197 30.2113 32.4889C30.9805 33.2581 31.9605 33.7819 33.0274 33.9941C34.0943 34.2063 35.2002 34.0974 36.2052 33.6811C37.2101 33.2649 38.0691 32.5599 38.6735 31.6554C39.2778 30.751 39.6004 29.6876 39.6004 28.5998C39.5987 27.1416 39.0186 25.7437 37.9876 24.7126C36.9565 23.6816 35.5585 23.1015 34.1004 23.0998ZM34.1004 24.8438C34.3302 24.8438 34.5548 24.9119 34.7459 25.0396C34.937 25.1673 35.0859 25.3487 35.1739 25.5611C35.2618 25.7734 35.2848 26.007 35.24 26.2324C35.1952 26.4578 35.0845 26.6648 34.922 26.8273C34.7595 26.9898 34.5525 27.1005 34.3271 27.1453C34.1017 27.1901 33.8681 27.1671 33.6557 27.0792C33.4434 26.9912 33.262 26.8423 33.1343 26.6512C33.0066 26.4601 32.9385 26.2355 32.9385 26.0057C32.9385 25.8531 32.9685 25.7019 33.027 25.5609C33.0854 25.4199 33.1711 25.2917 33.279 25.1838C33.387 25.0759 33.5152 24.9904 33.6562 24.932C33.7973 24.8737 33.9477 24.8437 34.1004 24.8438ZM30.3378 27.0824C30.3378 26.8526 30.406 26.6279 30.5336 26.4369C30.6613 26.2458 30.8428 26.0969 31.0551 26.0089C31.2674 25.921 31.501 25.898 31.7264 25.9428C31.9518 25.9876 32.1588 26.0983 32.3213 26.2608C32.4838 26.4233 32.5945 26.6303 32.6393 26.8557C32.6842 27.0811 32.6611 27.3147 32.5732 27.527C32.4853 27.7393 32.3363 27.9208 32.1453 28.0485C31.9542 28.1762 31.7295 28.2443 31.4997 28.2443C31.192 28.2432 30.8972 28.1203 30.6797 27.9027C30.4621 27.685 30.3388 27.3901 30.3378 27.0824ZM34.1004 32.3558C32.6638 32.3558 31.4997 31.4955 31.4997 30.4341C31.4997 29.3727 32.6653 28.5131 34.1004 28.5131C35.5355 28.5131 36.7011 29.3734 36.7011 30.4341C36.7011 31.4948 35.5369 32.3558 34.1004 32.3558ZM36.7011 28.2443C36.4704 28.2443 36.2449 28.1759 36.0531 28.0476C35.8614 27.9194 35.712 27.7371 35.6239 27.5239C35.5358 27.3108 35.5129 27.0762 35.5582 26.85C35.6034 26.6238 35.7148 26.4161 35.8782 26.2533C36.0415 26.0904 36.2496 25.9797 36.4759 25.9351C36.7022 25.8906 36.9367 25.9142 37.1496 26.003C37.3625 26.0917 37.5443 26.2417 37.672 26.4338C37.7996 26.626 37.8673 26.8517 37.8666 27.0824C37.8666 27.2352 37.8365 27.3865 37.7779 27.5277C37.7193 27.6689 37.6335 27.7971 37.5253 27.905C37.4171 28.013 37.2886 28.0985 37.1473 28.1567C37.006 28.2149 36.8539 28.2447 36.7011 28.2443Z" fill="#083D77"/>
<path fill-rule="evenodd" clip-rule="evenodd" d="M22.0008 10.608L38.0073 20.7735C38.2314 20.9158 38.5691 20.9017 38.7685 20.7363L39.4664 20.1574C39.6627 19.9945 39.6412 19.7478 39.4156 19.6045L22.7052 8.99192C22.3019 8.73577 21.6996 8.73577 21.2963 8.99192L4.58594 19.6045C4.3616 19.747 4.33583 19.992 4.53523 20.1574L5.23307 20.7363C5.42943 20.8992 5.76731 20.9177 5.99427 20.7735L22.0008 10.608ZM22.0008 12.1557L8.09352 20.988V34.4233C8.09352 34.8522 8.57252 35.1998 9.16332 35.1998H34.1004C29.7004 34.6498 27.5004 31.8998 27.5004 28.5998C27.5004 24.7498 30.8004 21.3406 35.9081 22.2355V20.988L22.0008 12.1557ZM28.0504 22.7613V23.6498C26.9504 24.7498 26.235 26.3998 26.235 27.8383H24.5178V31.8998H19.4408V27.8383H14.8716V22.7613H19.4408V18.6998H24.5178V22.7613H28.0504Z" fill="#083D77"/>
</svg>
