<svg width="109" height="44" viewBox="0 0 109 44" fill="none" xmlns="http://www.w3.org/2000/svg">
<path d="M34.1004 23.0998C33.0126 23.0998 31.9492 23.4224 31.0448 24.0267C30.1403 24.6311 29.4353 25.4901 29.0191 26.495C28.6028 27.5 28.4939 28.6059 28.7061 29.6728C28.9183 30.7397 29.4421 31.7197 30.2113 32.4889C30.9805 33.2581 31.9605 33.7819 33.0274 33.9941C34.0943 34.2063 35.2002 34.0974 36.2052 33.6811C37.2101 33.2649 38.0691 32.5599 38.6735 31.6554C39.2778 30.751 39.6004 29.6876 39.6004 28.5998C39.5987 27.1416 39.0186 25.7437 37.9876 24.7126C36.9565 23.6816 35.5585 23.1015 34.1004 23.0998ZM34.1004 24.8438C34.3302 24.8438 34.5548 24.9119 34.7459 25.0396C34.937 25.1673 35.0859 25.3487 35.1739 25.5611C35.2618 25.7734 35.2848 26.007 35.24 26.2324C35.1952 26.4578 35.0845 26.6648 34.922 26.8273C34.7595 26.9898 34.5525 27.1005 34.3271 27.1453C34.1017 27.1901 33.8681 27.1671 33.6557 27.0792C33.4434 26.9912 33.262 26.8423 33.1343 26.6512C33.0066 26.4601 32.9385 26.2355 32.9385 26.0057C32.9385 25.8531 32.9685 25.7019 33.027 25.5609C33.0854 25.4199 33.1711 25.2917 33.279 25.1838C33.387 25.0759 33.5152 24.9904 33.6562 24.932C33.7973 24.8737 33.9477 24.8437 34.1004 24.8438ZM30.3378 27.0824C30.3378 26.8526 30.406 26.6279 30.5336 26.4369C30.6613 26.2458 30.8428 26.0969 31.0551 26.0089C31.2674 25.921 31.501 25.898 31.7264 25.9428C31.9518 25.9876 32.1588 26.0983 32.3213 26.2608C32.4838 26.4233 32.5945 26.6303 32.6393 26.8557C32.6842 27.0811 32.6611 27.3147 32.5732 27.527C32.4853 27.7393 32.3363 27.9208 32.1453 28.0485C31.9542 28.1762 31.7295 28.2443 31.4997 28.2443C31.192 28.2432 30.8972 28.1203 30.6797 27.9027C30.4621 27.685 30.3388 27.3901 30.3378 27.0824ZM34.1004 32.3558C32.6638 32.3558 31.4997 31.4955 31.4997 30.4341C31.4997 29.3727 32.6653 28.5131 34.1004 28.5131C35.5355 28.5131 36.7011 29.3734 36.7011 30.4341C36.7011 31.4948 35.5369 32.3558 34.1004 32.3558ZM36.7011 28.2443C36.4704 28.2443 36.2449 28.1759 36.0531 28.0476C35.8614 27.9194 35.712 27.7371 35.6239 27.5239C35.5358 27.3108 35.5129 27.0762 35.5582 26.85C35.6034 26.6238 35.7148 26.4161 35.8782 26.2533C36.0415 26.0904 36.2496 25.9797 36.4759 25.9351C36.7022 25.8906 36.9367 25.9142 37.1496 26.003C37.3625 26.0917 37.5443 26.2417 37.672 26.4338C37.7996 26.626 37.8673 26.8517 37.8666 27.0824C37.8666 27.2352 37.8365 27.3865 37.7779 27.5277C37.7193 27.6689 37.6335 27.7971 37.5253 27.905C37.4171 28.013 37.2886 28.0985 37.1473 28.1567C37.006 28.2149 36.8539 28.2447 36.7011 28.2443Z" fill="#083D77"/>
<path fill-rule="evenodd" clip-rule="evenodd" d="M22.0008 10.608L38.0073 20.7735C38.2314 20.9158 38.5691 20.9017 38.7685 20.7363L39.4664 20.1574C39.6627 19.9945 39.6412 19.7478 39.4156 19.6045L22.7052 8.99192C22.3019 8.73577 21.6996 8.73577 21.2963 8.99192L4.58594 19.6045C4.3616 19.747 4.33583 19.992 4.53523 20.1574L5.23307 20.7363C5.42943 20.8992 5.76731 20.9177 5.99427 20.7735L22.0008 10.608ZM22.0008 12.1557L8.09352 20.988V34.4233C8.09352 34.8522 8.57252 35.1998 9.16332 35.1998H34.1004C29.7004 34.6498 27.5004 31.8998 27.5004 28.5998C27.5004 24.7498 30.8004 21.3406 35.9081 22.2355V20.988L22.0008 12.1557ZM28.0504 22.7613V23.6498C26.9504 24.7498 26.235 26.3998 26.235 27.8383H24.5178V31.8998H19.4408V27.8383H14.8716V22.7613H19.4408V18.6998H24.5178V22.7613H28.0504Z" fill="#083D77"/>
<path d="M63.3269 20.3372V18.6269C63.3269 18.3102 63.3205 18.1519 63.3076 18.1519H58.1493C58.1364 18.1519 58.1299 18.8803 58.1299 20.3372H63.3269ZM63.3269 23.2447V21.0593H58.1299V23.2447H63.3269ZM63.3076 26.2092C63.3205 26.2092 63.3269 25.468 63.3269 23.9858H58.1299C58.1299 25.468 58.1364 26.2092 58.1493 26.2092H63.3076ZM64.177 26.9693H57.3185C56.5972 26.9693 56.2366 26.7666 56.2366 26.3612V17.9998C56.2366 17.5944 56.5972 17.3918 57.3185 17.3918H59.1539L59.6369 15.2634H56.4105C55.7922 15.2634 55.4831 15.1177 55.4831 14.8263C55.4831 14.5223 55.7922 14.3703 56.4105 14.3703H64.9884C65.6067 14.3703 65.9158 14.5223 65.9158 14.8263C65.9158 15.1177 65.6067 15.2634 64.9884 15.2634H61.7234L61.0665 17.3918H64.177C64.8983 17.3918 65.2589 17.5944 65.2589 17.9998V26.3612C65.2589 26.7666 64.8983 26.9693 64.177 26.9693ZM50.1895 30.4848H49.919C49.0947 30.4848 48.6375 30.2568 48.5473 29.8007C48.5473 29.6361 48.8951 29.5537 49.5906 29.5537L50.3634 29.5727C50.6725 29.5727 50.8399 29.56 50.8657 29.5347C50.9043 29.5093 50.9237 26.7602 50.9237 21.2874H48.6246C48.0064 21.2874 47.6973 21.1353 47.6973 20.8313C47.6973 20.5273 48.0064 20.3752 48.6246 20.3752H53.0295C51.7287 19.1464 50.46 18.2152 49.2235 17.5818C49.0046 17.4424 48.8951 17.3601 48.8951 17.3347C48.8951 17.3474 48.9595 17.2777 49.0883 17.1257C49.23 16.961 49.4811 16.8787 49.8418 16.8787C50.1895 16.8787 50.7884 17.151 51.6385 17.6958C52.1537 17.2271 52.6496 16.657 53.1261 15.9855C53.2292 15.8462 53.2807 15.7195 53.2807 15.6055C53.2807 15.4788 53.3193 15.3774 53.3966 15.3014H49.0303C48.4121 15.3014 48.103 15.1557 48.103 14.8644C48.103 14.5603 48.4121 14.4083 49.0303 14.4083L54.266 14.3323C54.8069 14.3323 55.2577 14.459 55.6184 14.7123C55.7601 14.801 55.8309 14.8517 55.8309 14.8644L55.7343 15.0354C55.1032 16.0489 54.105 17.1764 52.7397 18.4179C53.7958 19.1654 54.3239 19.6151 54.3239 19.7671C54.3239 19.8178 54.1822 20.0205 53.8989 20.3752C54.3626 20.4259 54.8649 20.4702 55.4058 20.5082C55.9468 20.5463 56.2173 20.7173 56.2173 21.0213C56.2173 21.1607 56.1722 21.357 56.082 21.6104C55.6184 22.8266 55.2706 23.6374 55.0388 24.0428C54.9615 24.2328 54.7168 24.3279 54.3046 24.3279C53.6735 24.3279 53.358 24.2328 53.358 24.0428C53.358 24.0302 53.5061 23.6437 53.8023 22.8836C54.1114 22.1235 54.266 21.6864 54.266 21.5724C54.266 21.4584 54.2918 21.3634 54.3433 21.2874H52.8556V29.1356C52.8556 29.4143 52.7977 29.6613 52.6818 29.8767C52.4628 30.2822 51.6321 30.4848 50.1895 30.4848ZM55.4638 30.4658C55.0516 30.4658 54.7103 30.3202 54.4399 30.0288L54.3046 29.8957C54.3046 29.9084 54.3111 29.9147 54.3239 29.9147C54.6331 29.9147 55.3286 29.6043 56.4105 28.9836C57.1446 28.5655 57.589 28.2678 57.7435 28.0905C57.9625 27.8878 58.2394 27.7864 58.5743 27.7864C58.8576 27.7864 59.1281 27.8561 59.3857 27.9954C59.6433 28.1348 59.7721 28.2108 59.7721 28.2235C59.7721 28.3248 59.1732 28.7239 57.9754 29.4207C56.7775 30.1174 55.9403 30.4658 55.4638 30.4658ZM64.9498 30.4278C64.6278 30.4278 64.3638 30.3265 64.1577 30.1238C63.6167 29.579 62.8375 29.0152 61.82 28.4325C61.6139 28.3185 61.4916 28.2615 61.4529 28.2615L61.7427 28.0715C61.9231 27.9448 62.1742 27.8814 62.4962 27.8814C62.8311 27.8814 63.1531 27.9701 63.4622 28.1475C64.4668 28.6669 65.2976 29.237 65.9544 29.8577C66.0188 29.9084 66.0575 29.9337 66.0703 29.9337L65.7419 30.1808C65.5229 30.3455 65.2589 30.4278 64.9498 30.4278ZM85.8344 17.2397C85.3966 17.2397 85.1132 17.094 84.9844 16.8027C84.804 16.1946 84.3983 15.4978 83.7672 14.7123C83.69 14.611 83.6513 14.554 83.6513 14.5413C83.6513 14.5286 83.8123 14.459 84.1343 14.3323C84.2116 14.2943 84.3468 14.2753 84.54 14.2753C84.9779 14.2753 85.3321 14.4526 85.6026 14.8073C86.2466 15.5548 86.6587 16.1882 86.8391 16.7076L86.8584 16.8027C86.8584 16.8787 86.7103 16.98 86.414 17.1067C86.2208 17.1954 86.0276 17.2397 85.8344 17.2397ZM77.2758 16.6126C77.2887 16.6126 77.2951 16.2896 77.2951 15.6435C77.2951 14.9974 77.2887 14.6743 77.2758 14.6743H76.078C76.0651 14.6743 76.0587 14.9974 76.0587 15.6435C76.0587 16.2896 76.0651 16.6126 76.078 16.6126H77.2758ZM77.9327 17.2207H75.4597C74.7385 17.2207 74.3778 17.018 74.3778 16.6126V14.6553C74.3778 14.2499 74.7385 14.0472 75.4597 14.0472H77.9327C78.654 14.0472 79.0146 14.2499 79.0146 14.6553V16.6126C79.0146 17.018 78.654 17.2207 77.9327 17.2207ZM73.3925 22.4085V20.9263H71.6924C71.6924 21.9145 71.6989 22.4085 71.7117 22.4085H73.3925ZM73.3925 20.2992V18.836H71.7117C71.6989 18.836 71.6924 19.3237 71.6924 20.2992H73.3925ZM76.986 20.2992V19.3111C76.986 18.9944 76.9795 18.836 76.9667 18.836H75.1506V20.2992H76.986ZM76.9667 22.4085C76.9795 22.4085 76.986 21.9145 76.986 20.9263H75.1506V22.4085H76.9667ZM77.7974 23.0547H70.9196C70.1983 23.0547 69.8377 22.852 69.8377 22.4466V18.798C69.8377 18.3926 70.1983 18.1899 70.9196 18.1899H77.7974C78.5187 18.1899 78.8793 18.3926 78.8793 18.798V22.4466C78.8793 22.852 78.5187 23.0547 77.7974 23.0547ZM72.4652 16.6126C72.478 16.6126 72.4845 16.2896 72.4845 15.6435C72.4845 14.9974 72.478 14.6743 72.4652 14.6743H71.3833C71.3704 14.6743 71.364 14.9974 71.364 15.6435C71.364 16.2896 71.3704 16.6126 71.3833 16.6126H72.4652ZM73.1027 17.2207H70.765C70.0438 17.2207 69.6831 17.018 69.6831 16.6126V14.6553C69.6831 14.2499 70.0438 14.0472 70.765 14.0472H73.1027C73.824 14.0472 74.1846 14.2499 74.1846 14.6553V16.6126C74.1846 17.018 73.824 17.2207 73.1027 17.2207ZM78.86 24.8789H69.8957C69.2774 24.8789 68.9683 24.7523 68.9683 24.4989C68.9683 24.2455 69.2774 24.1188 69.8957 24.1188H78.86C79.4783 24.1188 79.7874 24.2455 79.7874 24.4989C79.7874 24.7523 79.4783 24.8789 78.86 24.8789ZM76.6769 28.8696C76.6898 28.8696 76.6962 28.5085 76.6962 27.7864C76.6962 27.0769 76.6898 26.7222 76.6769 26.7222H72.0981C72.0853 26.7222 72.0788 27.0769 72.0788 27.7864C72.0788 28.5085 72.0853 28.8696 72.0981 28.8696H76.6769ZM86.1436 30.3708C85.8473 30.3708 85.6219 30.2822 85.4674 30.1048C84.1021 28.7492 83.2134 26.9186 82.8013 24.6129C82.5436 26.4498 81.597 28.2425 79.9613 29.9908C79.7809 30.2188 79.5234 30.3328 79.1885 30.3328C78.8665 30.3328 78.6089 30.2441 78.4157 30.0668C78.2353 29.9021 78.1452 29.8071 78.1452 29.7817C78.1452 29.7564 78.1774 29.7057 78.2418 29.6297C80.1609 27.5647 81.217 24.2455 81.4102 19.6721H79.3817C78.7634 19.6721 78.4543 19.5137 78.4543 19.197C78.4543 18.8803 78.7634 18.722 79.3817 18.722H81.4296V13.9712C81.4296 13.6672 81.7515 13.5151 82.3955 13.5151C83.0395 13.5151 83.3615 13.6672 83.3615 13.9712V18.722H86.2015C86.8198 18.722 87.1289 18.8803 87.1289 19.197C87.1289 19.5137 86.8198 19.6721 86.2015 19.6721H83.7672C84.4113 24.8156 85.5575 28.1348 87.2062 29.6297L87.2641 29.6867C87.2641 29.6994 87.1611 29.8134 86.955 30.0288C86.7618 30.2568 86.4913 30.3708 86.1436 30.3708ZM77.5463 29.6107H71.2867C70.5654 29.6107 70.2048 29.408 70.2048 29.0026V26.5892C70.2048 26.1838 70.5654 25.9811 71.2867 25.9811H77.5463C78.2676 25.9811 78.6282 26.1838 78.6282 26.5892V29.0026C78.6282 29.408 78.2676 29.6107 77.5463 29.6107ZM105.058 17.5438C105.07 17.5438 105.077 17.1701 105.077 16.4226C105.077 15.6751 105.07 15.3014 105.058 15.3014H94.1806C94.1677 15.3014 94.1613 16.0489 94.1613 17.5438H105.058ZM91.4758 30.3708C91.2182 30.3708 90.9542 30.2948 90.6837 30.1428C90.4261 30.0034 90.2973 29.9084 90.2973 29.8577L90.336 29.7627C91.5724 27.8118 92.1906 24.4165 92.1906 19.5771V15.0544C92.1906 14.649 92.5513 14.4463 93.2726 14.4463H105.985C106.706 14.4463 107.067 14.649 107.067 15.0544V17.7718C107.067 18.1772 106.706 18.3799 105.985 18.3799H94.1613V19.5771C94.1613 24.4672 93.5109 27.9574 92.21 30.0478C92.0941 30.2632 91.8494 30.3708 91.4758 30.3708ZM107.376 29.9908H93.9487C93.3305 29.9908 93.0214 29.8514 93.0214 29.5727C93.0214 29.294 93.3305 29.1546 93.9487 29.1546H99.5901V26.7602H95.4364C94.8181 26.7602 94.509 26.6209 94.509 26.3422C94.509 26.0635 94.8181 25.9241 95.4364 25.9241H99.5901V23.9668C97.1043 24.1315 95.7068 24.2582 95.3977 24.3469C94.9727 24.3469 94.6958 24.1568 94.567 23.7768C94.5412 23.7008 94.5283 23.6437 94.5283 23.6057C94.5283 23.5297 94.67 23.4474 94.9534 23.3587C95.8549 22.6872 96.7823 21.8511 97.7354 20.8503H94.5863C93.9681 20.8503 93.659 20.7173 93.659 20.4512C93.659 20.1725 93.9681 20.0332 94.5863 20.0332H106.738C107.357 20.0332 107.666 20.1725 107.666 20.4512C107.666 20.7173 107.357 20.8503 106.738 20.8503H99.7447C98.2506 22.1679 97.5036 22.8583 97.5036 22.9216C97.5036 22.985 97.4714 23.0927 97.407 23.2447L103.802 22.9026L102.198 21.6484L102.43 21.4964C102.598 21.3824 102.829 21.3254 103.126 21.3254C103.499 21.3254 103.847 21.452 104.169 21.7054C105.508 22.5922 106.532 23.4347 107.241 24.2328L107.318 24.2898C107.305 24.2898 107.183 24.3595 106.951 24.4989C106.732 24.6383 106.487 24.7079 106.217 24.7079C105.869 24.7079 105.573 24.5939 105.328 24.3659C105.096 24.1252 104.864 23.8908 104.633 23.6628L101.522 23.8528V25.9241H105.85C106.468 25.9241 106.777 26.0635 106.777 26.3422C106.777 26.6209 106.468 26.7602 105.85 26.7602H101.522V29.1546H107.376C107.994 29.1546 108.303 29.294 108.303 29.5727C108.303 29.8514 107.994 29.9908 107.376 29.9908Z" fill="#083D77"/>
</svg>
