<svg width="20" height="60" viewBox="0 0 20 60" fill="none" xmlns="http://www.w3.org/2000/svg">
<g clip-path="url(#clip0_2506_17583)">
<path d="M17.0089 6.90084V5.01232C17.0089 4.66258 17.002 4.48773 16.988 4.48773H11.3853C11.3713 4.48773 11.3644 5.29209 11.3644 6.90084H17.0089ZM17.0089 10.1113V7.69822H11.3644V10.1113H17.0089ZM16.988 13.3848C17.002 13.3848 17.0089 12.5664 17.0089 10.9297H11.3644C11.3644 12.5664 11.3713 13.3848 11.3853 13.3848H16.988ZM17.9322 14.2241H10.483C9.69966 14.2241 9.30796 14.0003 9.30796 13.5526V4.31986C9.30796 3.87222 9.69966 3.64838 10.483 3.64838H12.4765L13.0011 1.29822H9.49681C8.82533 1.29822 8.4896 1.13734 8.4896 0.815594C8.4896 0.479857 8.82533 0.311986 9.49681 0.311986H18.8135C19.485 0.311986 19.8207 0.479857 19.8207 0.815594C19.8207 1.13734 19.485 1.29822 18.8135 1.29822H15.2673L14.5539 3.64838H17.9322C18.7156 3.64838 19.1073 3.87222 19.1073 4.31986V13.5526C19.1073 14.0003 18.7156 14.2241 17.9322 14.2241ZM2.74009 18.1061H2.44632C1.55102 18.1061 1.05441 17.8543 0.956482 17.3507C0.956482 17.1688 1.33419 17.0779 2.0896 17.0779L2.92894 17.0989C3.26468 17.0989 3.44655 17.0849 3.47451 17.0569C3.51648 17.0289 3.53747 13.9933 3.53747 7.95002H1.04042C0.368941 7.95002 0.0332031 7.78215 0.0332031 7.44641C0.0332031 7.11068 0.368941 6.94281 1.04042 6.94281H5.82468C4.41179 5.58586 3.03386 4.55766 1.69091 3.85822C1.45309 3.70435 1.33419 3.6134 1.33419 3.58543C1.33419 3.59943 1.40413 3.52248 1.54402 3.35461C1.6979 3.17275 1.97069 3.08182 2.36238 3.08182C2.74009 3.08182 3.39058 3.38258 4.31386 3.98412C4.87343 3.46651 5.41199 2.83701 5.9296 2.09559C6.0415 1.94172 6.09747 1.80182 6.09747 1.67592C6.09747 1.53603 6.13943 1.42412 6.22337 1.34018H1.48107C0.809596 1.34018 0.473859 1.17931 0.473859 0.857562C0.473859 0.521824 0.809596 0.353955 1.48107 0.353955L7.16763 0.27002C7.75517 0.27002 8.24478 0.409909 8.63648 0.689693C8.79035 0.787614 8.8673 0.843571 8.8673 0.857562L8.76238 1.04641C8.07691 2.16554 6.99278 3.41058 5.50992 4.7815C6.65704 5.60684 7.23058 6.10346 7.23058 6.27133C7.23058 6.3273 7.07671 6.5511 6.76894 6.94281C7.27255 6.99878 7.81812 7.04773 8.40566 7.08969C8.9932 7.13166 9.28697 7.32051 9.28697 7.65625C9.28697 7.81012 9.23802 8.02697 9.14009 8.30674C8.63648 9.64969 8.25878 10.545 8.00697 10.9926C7.92304 11.2025 7.65724 11.3074 7.2096 11.3074C6.52412 11.3074 6.1814 11.2025 6.1814 10.9926C6.1814 10.9786 6.34228 10.552 6.66402 9.71264C6.99976 8.8733 7.16763 8.39068 7.16763 8.26478C7.16763 8.13887 7.1956 8.03396 7.25156 7.95002H5.63583V16.6163C5.63583 16.924 5.57288 17.1968 5.44697 17.4346C5.20917 17.8823 4.30688 18.1061 2.74009 18.1061ZM8.46861 18.0851C8.02097 18.0851 7.65025 17.9242 7.35648 17.6025L7.2096 17.4556C7.2096 17.4696 7.21658 17.4766 7.23058 17.4766C7.56632 17.4766 8.32173 17.1339 9.49681 16.4484C10.2942 15.9867 10.7768 15.658 10.9447 15.4622C11.1825 15.2383 11.4833 15.1264 11.847 15.1264C12.1547 15.1264 12.4485 15.2034 12.7283 15.3572C13.0081 15.5111 13.148 15.595 13.148 15.609C13.148 15.7209 12.4975 16.1616 11.1965 16.931C9.8955 17.7004 8.98622 18.0851 8.46861 18.0851ZM18.7716 18.0431C18.4218 18.0431 18.1351 17.9312 17.9112 17.7074C17.3237 17.1059 16.4774 16.4834 15.3722 15.8399C15.1484 15.714 15.0155 15.651 14.9735 15.651L15.2883 15.4412C15.4841 15.3013 15.7569 15.2313 16.1066 15.2313C16.4704 15.2313 16.8201 15.3293 17.1558 15.5251C18.247 16.0986 19.1493 16.7282 19.8627 17.4136C19.9326 17.4696 19.9746 17.4976 19.9886 17.4976L19.6319 17.7703C19.3941 17.9522 19.1073 18.0431 18.7716 18.0431ZM18.3729 24.4641C17.8972 24.4641 17.5895 24.3032 17.4496 23.9815C17.2538 23.31 16.8131 22.5406 16.1276 21.6733C16.0437 21.5614 16.0017 21.4984 16.0017 21.4844C16.0017 21.4704 16.1766 21.3935 16.5263 21.2536C16.6103 21.2117 16.7571 21.1907 16.967 21.1907C17.4426 21.1907 17.8273 21.3865 18.1211 21.7782C18.8205 22.6036 19.2682 23.303 19.464 23.8766L19.485 23.9815C19.485 24.0654 19.3241 24.1773 19.0024 24.3172C18.7925 24.4152 18.5827 24.4641 18.3729 24.4641ZM9.07714 23.7717C9.09114 23.7717 9.09812 23.4149 9.09812 22.7015C9.09812 21.9881 9.09114 21.6313 9.07714 21.6313H7.77615C7.76215 21.6313 7.75517 21.9881 7.75517 22.7015C7.75517 23.4149 7.76215 23.7717 7.77615 23.7717H9.07714ZM9.79058 24.4431H7.10468C6.3213 24.4431 5.9296 24.2193 5.9296 23.7717V21.6104C5.9296 21.1627 6.3213 20.9389 7.10468 20.9389H9.79058C10.574 20.9389 10.9657 21.1627 10.9657 21.6104V23.7717C10.9657 24.2193 10.574 24.4431 9.79058 24.4431ZM4.85943 30.1717V28.5349H3.01288C3.01288 29.6261 3.01987 30.1717 3.03386 30.1717H4.85943ZM4.85943 27.8425V26.2267H3.03386C3.01987 26.2267 3.01288 26.7653 3.01288 27.8425H4.85943ZM8.76238 27.8425V26.7513C8.76238 26.4016 8.7554 26.2267 8.7414 26.2267H6.76894V27.8425H8.76238ZM8.7414 30.1717C8.7554 30.1717 8.76238 29.6261 8.76238 28.5349H6.76894V30.1717H8.7414ZM9.64369 30.8851H2.17353C1.39014 30.8851 0.998449 30.6613 0.998449 30.2136V26.1848C0.998449 25.7371 1.39014 25.5133 2.17353 25.5133H9.64369C10.4271 25.5133 10.8188 25.7371 10.8188 26.1848V30.2136C10.8188 30.6613 10.4271 30.8851 9.64369 30.8851ZM3.85222 23.7717C3.86622 23.7717 3.8732 23.4149 3.8732 22.7015C3.8732 21.9881 3.86622 21.6313 3.85222 21.6313H2.67714C2.66315 21.6313 2.65615 21.9881 2.65615 22.7015C2.65615 23.4149 2.66315 23.7717 2.67714 23.7717H3.85222ZM4.54468 24.4431H2.00566C1.22228 24.4431 0.83058 24.2193 0.83058 23.7717V21.6104C0.83058 21.1627 1.22228 20.9389 2.00566 20.9389H4.54468C5.32806 20.9389 5.71976 21.1627 5.71976 21.6104V23.7717C5.71976 24.2193 5.32806 24.4431 4.54468 24.4431ZM10.7978 32.8995H1.0614C0.389924 32.8995 0.0541867 32.7596 0.0541867 32.4799C0.0541867 32.2001 0.389924 32.0602 1.0614 32.0602H10.7978C11.4693 32.0602 11.805 32.2001 11.805 32.4799C11.805 32.7596 11.4693 32.8995 10.7978 32.8995ZM8.42665 37.3061C8.44065 37.3061 8.44763 36.9074 8.44763 36.11C8.44763 35.3267 8.44065 34.9349 8.42665 34.9349H3.45353C3.43953 34.9349 3.43255 35.3267 3.43255 36.11C3.43255 36.9074 3.43953 37.3061 3.45353 37.3061H8.42665ZM18.7086 38.9638C18.3869 38.9638 18.1421 38.8658 17.9742 38.67C16.4913 37.1733 15.5261 35.1517 15.0784 32.6058C14.7987 34.6343 13.7705 36.6136 11.9939 38.5441C11.798 38.7959 11.5182 38.9218 11.1545 38.9218C10.8048 38.9218 10.525 38.8238 10.3152 38.6281C10.1193 38.4461 10.0214 38.3412 10.0214 38.3133C10.0214 38.2854 10.0564 38.2294 10.1263 38.1454C12.2107 35.8651 13.3578 32.2001 13.5676 27.15H11.3644C10.6929 27.15 10.3571 26.9752 10.3571 26.6254C10.3571 26.2757 10.6929 26.1008 11.3644 26.1008H13.5886V20.8549C13.5886 20.5192 13.9384 20.3513 14.6378 20.3513C15.3372 20.3513 15.687 20.5192 15.687 20.8549V26.1008H18.7716C19.443 26.1008 19.7788 26.2757 19.7788 26.6254C19.7788 26.9752 19.443 27.15 18.7716 27.15H16.1276C16.8271 32.8297 18.0721 36.4946 19.8627 38.1454L19.9257 38.2084C19.9257 38.2225 19.8138 38.3484 19.5899 38.5861C19.3801 38.8379 19.0863 38.9638 18.7086 38.9638ZM9.37091 38.1245H2.57222C1.78883 38.1245 1.39714 37.9005 1.39714 37.453V34.7881C1.39714 34.3405 1.78883 34.1166 2.57222 34.1166H9.37091C10.1543 34.1166 10.546 34.3405 10.546 34.7881V37.453C10.546 37.9005 10.1543 38.1245 9.37091 38.1245ZM16.1696 45.7835C16.1836 45.7835 16.1906 45.3707 16.1906 44.5454C16.1906 43.7202 16.1836 43.3074 16.1696 43.3074H4.35583C4.34183 43.3074 4.33484 44.1326 4.33484 45.7835H16.1696ZM1.41812 59.9474C1.13834 59.9474 0.851564 59.8635 0.557793 59.6956C0.278012 59.5418 0.138121 59.4369 0.138121 59.3808L0.180088 59.2759C1.52304 57.1215 2.19451 53.3727 2.19451 48.0287V43.0346C2.19451 42.5871 2.58621 42.3631 3.3696 42.3631H17.1768C17.9602 42.3631 18.3519 42.5871 18.3519 43.0346V46.0353C18.3519 46.4828 17.9602 46.7067 17.1768 46.7067H4.33484V48.0287C4.33484 53.4284 3.62838 57.2825 2.2155 59.5907C2.0896 59.8284 1.8238 59.9474 1.41812 59.9474ZM18.6876 59.5277H4.10402C3.43255 59.5277 3.09681 59.374 3.09681 59.0661C3.09681 58.7582 3.43255 58.6045 4.10402 58.6045H10.2312V55.9605H5.71976C5.04829 55.9605 4.71255 55.8068 4.71255 55.4989C4.71255 55.191 5.04829 55.0372 5.71976 55.0372H10.2312V52.8759C7.53133 53.0579 6.01353 53.1976 5.67779 53.2956C5.21615 53.2956 4.9154 53.0858 4.7755 52.6661C4.74753 52.5822 4.73353 52.5192 4.73353 52.4772C4.73353 52.3933 4.8874 52.3025 5.19517 52.2045C6.17442 51.4631 7.18163 50.5399 8.21681 49.4346H4.79648C4.12501 49.4346 3.78927 49.2877 3.78927 48.994C3.78927 48.6861 4.12501 48.5323 4.79648 48.5323H17.9952C18.6666 48.5323 19.0024 48.6861 19.0024 48.994C19.0024 49.2877 18.6666 49.4346 17.9952 49.4346H10.3991C8.77638 50.8894 7.96501 51.652 7.96501 51.7218C7.96501 51.7917 7.93002 51.9107 7.86009 52.0786L14.8057 51.7008L13.064 50.3159L13.3158 50.1481C13.4977 50.0222 13.7495 49.9592 14.0712 49.9592C14.4769 49.9592 14.8546 50.0992 15.2044 50.3789C16.6592 51.3582 17.7713 52.2884 18.5407 53.1697L18.6247 53.2327C18.6107 53.2327 18.4778 53.3097 18.226 53.4635C17.9882 53.6172 17.7224 53.6943 17.4286 53.6943C17.0509 53.6943 16.7292 53.5684 16.4634 53.3166C16.2116 53.0507 15.9598 52.792 15.708 52.5402L12.3296 52.75V55.0372H17.0299C17.7014 55.0372 18.0371 55.191 18.0371 55.4989C18.0371 55.8068 17.7014 55.9605 17.0299 55.9605H12.3296V58.6045H18.6876C19.3591 58.6045 19.6948 58.7582 19.6948 59.0661C19.6948 59.374 19.3591 59.5277 18.6876 59.5277Z" fill="#083D77"/>
</g>
<defs>
<clipPath id="clip0_2506_17583">
<rect width="20" height="60" fill="white"/>
</clipPath>
</defs>
</svg>
