<svg width="62" height="20" viewBox="0 0 62 20" fill="none" xmlns="http://www.w3.org/2000/svg">
<path d="M16.3269 8.33722V6.62695C16.3269 6.31023 16.3205 6.15187 16.3076 6.15187H11.1493C11.1364 6.15187 11.1299 6.88034 11.1299 8.33722H16.3269ZM16.3269 11.2447V9.05934H11.1299V11.2447H16.3269ZM16.3076 14.2092C16.3205 14.2092 16.3269 13.468 16.3269 11.9858H11.1299C11.1299 13.468 11.1364 14.2092 11.1493 14.2092H16.3076ZM17.177 14.9693H10.3185C9.59721 14.9693 9.2366 14.7666 9.2366 14.3612V5.99985C9.2366 5.59445 9.59721 5.39175 10.3185 5.39175H12.1539L12.6369 3.26341H9.41047C8.79224 3.26341 8.48312 3.11773 8.48312 2.82634C8.48312 2.5223 8.79224 2.37027 9.41047 2.37027H17.9884C18.6067 2.37027 18.9158 2.5223 18.9158 2.82634C18.9158 3.11773 18.6067 3.26341 17.9884 3.26341H14.7234L14.0665 5.39175H17.177C17.8983 5.39175 18.2589 5.59445 18.2589 5.99985V14.3612C18.2589 14.7666 17.8983 14.9693 17.177 14.9693ZM3.18951 18.4848H2.91904C2.09473 18.4848 1.63749 18.2568 1.54733 17.8007C1.54733 17.6361 1.89509 17.5537 2.5906 17.5537L3.36339 17.5727C3.67251 17.5727 3.83994 17.56 3.8657 17.5347C3.90434 17.5093 3.92366 14.7602 3.92366 9.28737H1.62461C1.00638 9.28737 0.697266 9.13535 0.697266 8.8313C0.697266 8.52725 1.00638 8.37523 1.62461 8.37523H6.02952C4.72865 7.14638 3.45999 6.21522 2.22353 5.58178C2.00457 5.44243 1.89509 5.36008 1.89509 5.33474C1.89509 5.34741 1.95949 5.27773 2.08829 5.12571C2.22997 4.96102 2.48112 4.87867 2.84176 4.87867C3.18951 4.87867 3.78843 5.15105 4.63849 5.6958C5.15369 5.22706 5.64956 4.65697 6.12612 3.98553C6.22917 3.84617 6.28067 3.71949 6.28067 3.60547C6.28067 3.47878 6.31931 3.37743 6.39659 3.30142H2.03033C1.4121 3.30142 1.10298 3.15573 1.10298 2.86435C1.10298 2.5603 1.4121 2.40828 2.03033 2.40828L7.26598 2.33227C7.80693 2.33227 8.25775 2.45895 8.61836 2.71233C8.76006 2.80101 8.83088 2.85168 8.83088 2.86435L8.73428 3.03538C8.10319 4.04887 7.10496 5.17638 5.73972 6.41792C6.79585 7.16539 7.32394 7.61511 7.32394 7.76713C7.32394 7.81778 7.18224 8.02052 6.8989 8.37523C7.36258 8.42588 7.86489 8.47024 8.40585 8.50825C8.9468 8.54625 9.21727 8.71728 9.21727 9.02133C9.21727 9.1607 9.17218 9.35703 9.08204 9.61042C8.61836 10.8266 8.27061 11.6374 8.03877 12.0428C7.96149 12.2328 7.71679 12.3279 7.30462 12.3279C6.67353 12.3279 6.35795 12.2328 6.35795 12.0428C6.35795 12.0302 6.50605 11.6437 6.80231 10.8836C7.11142 10.1235 7.26598 9.68643 7.26598 9.57242C7.26598 9.4584 7.29176 9.36338 7.34326 9.28737H5.85564V17.1356C5.85564 17.4143 5.79768 17.6613 5.68176 17.8767C5.4628 18.2822 4.63205 18.4848 3.18951 18.4848ZM8.4638 18.4658C8.05163 18.4658 7.71033 18.3202 7.43986 18.0288L7.30462 17.8957C7.30462 17.9084 7.31108 17.9147 7.32394 17.9147C7.63306 17.9147 8.32857 17.6043 9.41047 16.9836C10.1446 16.5655 10.589 16.2678 10.7435 16.0905C10.9625 15.8878 11.2394 15.7864 11.5743 15.7864C11.8576 15.7864 12.1281 15.8561 12.3857 15.9954C12.6433 16.1348 12.7721 16.2108 12.7721 16.2235C12.7721 16.3248 12.1732 16.7239 10.9754 17.4207C9.77755 18.1174 8.94034 18.4658 8.4638 18.4658ZM17.9498 18.4278C17.6278 18.4278 17.3638 18.3265 17.1577 18.1238C16.6167 17.579 15.8375 17.0152 14.82 16.4325C14.6139 16.3185 14.4916 16.2615 14.4529 16.2615L14.7427 16.0715C14.9231 15.9448 15.1742 15.8814 15.4962 15.8814C15.8311 15.8814 16.1531 15.9701 16.4622 16.1475C17.4668 16.6669 18.2976 17.237 18.9544 17.8577C19.0188 17.9084 19.0575 17.9337 19.0703 17.9337L18.7419 18.1808C18.5229 18.3455 18.2589 18.4278 17.9498 18.4278ZM38.8344 5.23973C38.3966 5.23973 38.1132 5.09404 37.9844 4.80266C37.804 4.19456 37.3983 3.49779 36.7672 2.71233C36.69 2.61098 36.6513 2.55397 36.6513 2.5413C36.6513 2.52863 36.8123 2.45895 37.1343 2.33227C37.2116 2.29426 37.3468 2.27526 37.54 2.27526C37.9779 2.27526 38.3321 2.45261 38.6026 2.80734C39.2466 3.55479 39.6587 4.18823 39.8391 4.70764L39.8584 4.80266C39.8584 4.87867 39.7103 4.98002 39.414 5.10671C39.2208 5.19539 39.0276 5.23973 38.8344 5.23973ZM30.2758 4.61263C30.2887 4.61263 30.2951 4.28958 30.2951 3.64347C30.2951 2.99737 30.2887 2.67432 30.2758 2.67432H29.078C29.0651 2.67432 29.0587 2.99737 29.0587 3.64347C29.0587 4.28958 29.0651 4.61263 29.078 4.61263H30.2758ZM30.9327 5.22073H28.4597C27.7385 5.22073 27.3778 5.01803 27.3778 4.61263V2.65532C27.3778 2.24992 27.7385 2.04722 28.4597 2.04722H30.9327C31.654 2.04722 32.0146 2.24992 32.0146 2.65532V4.61263C32.0146 5.01803 31.654 5.22073 30.9327 5.22073ZM26.3925 10.4085V8.92631H24.6924C24.6924 9.91447 24.6989 10.4085 24.7117 10.4085H26.3925ZM26.3925 8.29921V6.83598H24.7117C24.6989 6.83598 24.6924 7.32371 24.6924 8.29921H26.3925ZM29.986 8.29921V7.31106C29.986 6.99436 29.9795 6.83598 29.9667 6.83598H28.1506V8.29921H29.986ZM29.9667 10.4085C29.9795 10.4085 29.986 9.91447 29.986 8.92631H28.1506V10.4085H29.9667ZM30.7974 11.0547H23.9196C23.1983 11.0547 22.8377 10.852 22.8377 10.4466V6.79798C22.8377 6.39258 23.1983 6.18988 23.9196 6.18988H30.7974C31.5187 6.18988 31.8793 6.39258 31.8793 6.79798V10.4466C31.8793 10.852 31.5187 11.0547 30.7974 11.0547ZM25.4652 4.61263C25.478 4.61263 25.4845 4.28958 25.4845 3.64347C25.4845 2.99737 25.478 2.67432 25.4652 2.67432H24.3833C24.3704 2.67432 24.364 2.99737 24.364 3.64347C24.364 4.28958 24.3704 4.61263 24.3833 4.61263H25.4652ZM26.1027 5.22073H23.765C23.0438 5.22073 22.6831 5.01803 22.6831 4.61263V2.65532C22.6831 2.24992 23.0438 2.04722 23.765 2.04722H26.1027C26.824 2.04722 27.1846 2.24992 27.1846 2.65532V4.61263C27.1846 5.01803 26.824 5.22073 26.1027 5.22073ZM31.86 12.8789H22.8957C22.2774 12.8789 21.9683 12.7523 21.9683 12.4989C21.9683 12.2455 22.2774 12.1188 22.8957 12.1188H31.86C32.4783 12.1188 32.7874 12.2455 32.7874 12.4989C32.7874 12.7523 32.4783 12.8789 31.86 12.8789ZM29.6769 16.8696C29.6898 16.8696 29.6962 16.5085 29.6962 15.7864C29.6962 15.0769 29.6898 14.7222 29.6769 14.7222H25.0981C25.0853 14.7222 25.0788 15.0769 25.0788 15.7864C25.0788 16.5085 25.0853 16.8696 25.0981 16.8696H29.6769ZM39.1436 18.3708C38.8473 18.3708 38.6219 18.2822 38.4674 18.1048C37.1021 16.7492 36.2134 14.9186 35.8013 12.6129C35.5436 14.4498 34.597 16.2425 32.9613 17.9908C32.7809 18.2188 32.5234 18.3328 32.1885 18.3328C31.8665 18.3328 31.6089 18.2441 31.4157 18.0668C31.2353 17.9021 31.1452 17.8071 31.1452 17.7817C31.1452 17.7564 31.1774 17.7057 31.2418 17.6297C33.1609 15.5647 34.217 12.2455 34.4102 7.67211H32.3817C31.7634 7.67211 31.4543 7.51374 31.4543 7.19704C31.4543 6.88034 31.7634 6.72196 32.3817 6.72196H34.4296V1.97121C34.4296 1.66716 34.7515 1.51514 35.3955 1.51514C36.0395 1.51514 36.3615 1.66716 36.3615 1.97121V6.72196H39.2015C39.8198 6.72196 40.1289 6.88034 40.1289 7.19704C40.1289 7.51374 39.8198 7.67211 39.2015 7.67211H36.7672C37.4113 12.8156 38.5575 16.1348 40.2062 17.6297L40.2641 17.6867C40.2641 17.6994 40.1611 17.8134 39.955 18.0288C39.7618 18.2568 39.4913 18.3708 39.1436 18.3708ZM30.5463 17.6107H24.2867C23.5654 17.6107 23.2048 17.408 23.2048 17.0026V14.5892C23.2048 14.1838 23.5654 13.9811 24.2867 13.9811H30.5463C31.2676 13.9811 31.6282 14.1838 31.6282 14.5892V17.0026C31.6282 17.408 31.2676 17.6107 30.5463 17.6107ZM58.0576 5.54378C58.0705 5.54378 58.0769 5.17005 58.0769 4.4226C58.0769 3.67514 58.0705 3.30142 58.0576 3.30142H47.1806C47.1677 3.30142 47.1613 4.04887 47.1613 5.54378H58.0576ZM44.4758 18.3708C44.2182 18.3708 43.9542 18.2948 43.6837 18.1428C43.4261 18.0034 43.2973 17.9084 43.2973 17.8577L43.336 17.7627C44.5724 15.8118 45.1906 12.4165 45.1906 7.5771V3.05438C45.1906 2.64898 45.5513 2.44628 46.2726 2.44628H58.985C59.7062 2.44628 60.0669 2.64898 60.0669 3.05438V5.77181C60.0669 6.17721 59.7062 6.37991 58.985 6.37991H47.1613V7.5771C47.1613 12.4672 46.5109 15.9574 45.21 18.0478C45.0941 18.2632 44.8494 18.3708 44.4758 18.3708ZM60.376 17.9908H46.9487C46.3305 17.9908 46.0214 17.8514 46.0214 17.5727C46.0214 17.294 46.3305 17.1546 46.9487 17.1546H52.5901V14.7602H48.4364C47.8181 14.7602 47.509 14.6209 47.509 14.3422C47.509 14.0635 47.8181 13.9241 48.4364 13.9241H52.5901V11.9668C50.1043 12.1315 48.7068 12.2582 48.3977 12.3469C47.9727 12.3469 47.6958 12.1568 47.567 11.7768C47.5412 11.7008 47.5283 11.6437 47.5283 11.6057C47.5283 11.5297 47.67 11.4474 47.9534 11.3587C48.8549 10.6872 49.7823 9.85111 50.7354 8.8503H47.5863C46.9681 8.8503 46.659 8.71728 46.659 8.45124C46.659 8.17255 46.9681 8.03317 47.5863 8.03317H59.7384C60.3567 8.03317 60.6658 8.17255 60.6658 8.45124C60.6658 8.71728 60.3567 8.8503 59.7384 8.8503H52.7447C51.2506 10.1679 50.5036 10.8583 50.5036 10.9216C50.5036 10.985 50.4714 11.0927 50.407 11.2447L56.8018 10.9026L55.1983 9.64843L55.4301 9.4964C55.5975 9.38239 55.8294 9.32538 56.1256 9.32538C56.4992 9.32538 56.8469 9.45204 57.1689 9.70544C58.5084 10.5922 59.5324 11.4347 60.2407 12.2328L60.318 12.2898C60.3052 12.2898 60.1828 12.3595 59.9509 12.4989C59.732 12.6383 59.4873 12.7079 59.2168 12.7079C58.869 12.7079 58.5728 12.5939 58.3281 12.3659C58.0962 12.1252 57.8644 11.8908 57.6326 11.6628L54.5221 11.8528V13.9241H58.8497C59.4679 13.9241 59.7771 14.0635 59.7771 14.3422C59.7771 14.6209 59.4679 14.7602 58.8497 14.7602H54.5221V17.1546H60.376C60.9942 17.1546 61.3033 17.294 61.3033 17.5727C61.3033 17.8514 60.9942 17.9908 60.376 17.9908Z" fill="#083D77"/>
</svg>
