<svg viewBox="0 0 219 207" fill="none" xmlns="http://www.w3.org/2000/svg">
<path d="M199.129 80.585C213.168 97.1768 210.247 117.466 210.249 135.375C210.249 184.691 143.754 198.5 109.5 198.5C75.2455 198.5 8.75173 184.691 8.75173 135.375C8.75185 117.466 5.83296 97.1768 19.8708 80.585M199.129 80.585C196.673 77.6825 193.699 74.8937 190.098 72.25M199.129 80.585C207.966 85.6754 210.223 66.628 210.249 60.4141V36.7436C210.249 16.228 196.144 9.12639 184.054 9.12639C171.965 9.12639 147.784 28.8516 139.724 28.8516C130.052 28.8516 128.19 26.8803 109.5 26.8803C90.8112 26.8803 88.9477 28.8516 79.2759 28.8516C71.2159 28.8516 47.036 9.125 34.9463 9.125C22.8565 9.125 8.75186 16.2266 8.75186 36.7422V60.4141C8.77622 66.628 11.0341 85.6754 19.8708 80.585M19.8708 80.585C22.3268 77.6825 25.3016 74.8937 28.9019 72.25" stroke="#82AAD6" stroke-width="8" stroke-linecap="round"/>
</svg>
