<svg viewBox="0 0 28 27" fill="none" xmlns="http://www.w3.org/2000/svg">
<g clip-path="url(#clip0_2112_1193)">
<mask id="mask0_2112_1193" style="mask-type:luminance" maskUnits="userSpaceOnUse" x="0" y="0" width="28" height="27">
<path d="M28 0H0V26.5263H28V0Z" fill="white"/>
</mask>
<g mask="url(#mask0_2112_1193)">
<path d="M8.28968 9.21053C10.3244 9.21053 11.9739 7.14868 11.9739 4.60526C11.9739 2.06185 10.3244 0 8.28968 0C6.25495 0 4.60547 2.06185 4.60547 4.60526C4.60547 7.14868 6.25495 9.21053 8.28968 9.21053Z" fill="#083D77"/>
<path d="M1.84211 13.8162C2.85948 13.8162 3.68421 12.7853 3.68421 11.5136C3.68421 10.2419 2.85948 9.21094 1.84211 9.21094C0.824739 9.21094 0 10.2419 0 11.5136C0 12.7853 0.824739 13.8162 1.84211 13.8162Z" fill="#083D77"/>
<path d="M19.3424 9.21053C21.3771 9.21053 23.0266 7.14868 23.0266 4.60526C23.0266 2.06185 21.3771 0 19.3424 0C17.3077 0 15.6582 2.06185 15.6582 4.60526C15.6582 7.14868 17.3077 9.21053 19.3424 9.21053Z" fill="#083D77"/>
<path d="M25.7894 13.8162C26.8068 13.8162 27.6315 12.7853 27.6315 11.5136C27.6315 10.2419 26.8068 9.21094 25.7894 9.21094C24.7719 9.21094 23.9473 10.2419 23.9473 11.5136C23.9473 12.7853 24.7719 13.8162 25.7894 13.8162Z" fill="#083D77"/>
<path d="M13.8153 23.9475C16.7627 23.9475 17.7022 25.7896 20.2627 25.7896C22.943 25.7896 24.868 24.408 24.868 20.2633C24.868 13.1527 16.7627 11.0527 13.8153 11.0527C10.868 11.0527 2.7627 13.1527 2.7627 20.2633C2.7627 24.408 4.6877 25.7896 7.36796 25.7896C10.0482 25.7896 10.868 23.9475 13.8153 23.9475Z" fill="#083D77"/>
</g>
</g>
<defs>
<clipPath id="clip0_2112_1193">
<rect width="28" height="26.5263" fill="white"/>
</clipPath>
</defs>
</svg>
