<svg viewBox="0 0 24 24" fill="none" xmlns="http://www.w3.org/2000/svg">
<path d="M10.5 6C10.5 7.38071 9.38071 8.5 8 8.5C6.61929 8.5 5.5 7.38071 5.5 6C5.5 4.61929 6.61929 3.5 8 3.5C9.38071 3.5 10.5 4.61929 10.5 6Z" stroke="#083D77"/>
<path d="M4.5 10.5C4.5 11.0523 4.05229 11.5 3.5 11.5C2.94772 11.5 2.5 11.0523 2.5 10.5C2.5 9.94772 2.94772 9.5 3.5 9.5C4.05229 9.5 4.5 9.94772 4.5 10.5Z" stroke="#083D77"/>
<path d="M17.5 6C17.5 7.46994 16.5231 8.5 15.5 8.5C14.4769 8.5 13.5 7.46994 13.5 6C13.5 4.53006 14.4769 3.5 15.5 3.5C16.5231 3.5 17.5 4.53006 17.5 6Z" stroke="#083D77"/>
<path d="M21.5 10.5C21.5 11.0523 21.0523 11.5 20.5 11.5C19.9477 11.5 19.5 11.0523 19.5 10.5C19.5 9.94771 19.9477 9.5 20.5 9.5C21.0523 9.5 21.5 9.94771 21.5 10.5Z" stroke="#083D77"/>
<path d="M16.6667 20.5C15.8852 20.5 15.353 20.251 14.7003 19.9456C14.6837 19.9378 14.6669 19.9299 14.6501 19.9221C13.9666 19.6025 13.1807 19.25 12 19.25C10.8173 19.25 10.0518 19.6039 9.37953 19.9234C9.36973 19.9281 9.35995 19.9327 9.3502 19.9374C8.70511 20.244 8.16674 20.5 7.33333 20.5C6.43647 20.5 5.75366 20.2833 5.29125 19.8247C4.82937 19.3666 4.5 18.5805 4.5 17.25C4.5 15.0838 5.80221 13.6608 7.44213 12.7531C9.09448 11.8385 11.0098 11.5 12 11.5C12.9902 11.5 14.9055 11.8385 16.5579 12.7531C18.1978 13.6608 19.5 15.0838 19.5 17.25C19.5 18.5806 19.1706 19.3666 18.7088 19.8247C18.2464 20.2833 17.5636 20.5 16.6667 20.5Z" stroke="#083D77"/>
</svg>
