<svg viewBox="0 0 24 24" fill="none" xmlns="http://www.w3.org/2000/svg">
<g clip-path="url(#clip0_2421_2901)">
<path d="M16.6333 15.4665L16.633 15.4665C16.1742 15.4139 15.7255 15.5714 15.4036 15.8933L13.5636 17.7333L13.3069 17.99L12.9833 17.8254C10.0596 16.3377 7.66244 13.9512 6.17409 11.0159L6.01015 10.6926L6.26649 10.4362L8.11649 8.58621C8.43834 8.26435 8.59592 7.8157 8.54332 7.35693C8.54331 7.35687 8.54331 7.35682 8.5433 7.35677L8.25353 4.83876C8.2535 4.83845 8.25346 4.83815 8.25342 4.83785C8.16276 4.07856 7.52511 3.50977 6.76004 3.50977H5.03004C4.16952 3.50977 3.47805 4.22506 3.52908 5.04885M16.6333 15.4665L18.951 20.4707C10.6725 19.9563 4.04345 13.3369 3.52908 5.04885M16.6333 15.4665L19.171 15.7563C19.1714 15.7563 19.1718 15.7564 19.1722 15.7564C19.9337 15.8475 20.4975 16.4859 20.4901 17.2348H20.49M16.6333 15.4665L20.49 17.2348M3.52908 5.04885L3.03004 5.07977M3.52908 5.04885L3.03004 5.07977M3.03004 5.07977C3.56004 13.6198 10.39 20.4398 18.92 20.9698L8.75004 4.77977C8.63004 3.76977 7.78004 3.00977 6.76004 3.00977H5.03004C3.90004 3.00977 2.96004 3.94977 3.03004 5.07977ZM20.49 17.2348V17.2398M20.49 17.2348V17.2398M20.49 17.2398V18.9698C20.49 19.8303 19.7748 20.5217 18.951 20.4707L20.49 17.2398Z" fill="#0A0A0A" stroke="#0A0A0A"/>
</g>
<defs>
<clipPath id="clip0_2421_2901">
<rect width="24" height="24" fill="white"/>
</clipPath>
</defs>
</svg>
