<svg width="40" height="42" viewBox="0 0 40 42" fill="none" xmlns="http://www.w3.org/2000/svg">
<rect y="2" width="40" height="40" rx="20" fill="#E6EFFB"/>
<path d="M31 21C30.0111 21 29.0444 21.2932 28.2222 21.8427C27.3999 22.3921 26.759 23.173 26.3806 24.0866C26.0022 25.0002 25.9031 26.0055 26.0961 26.9754C26.289 27.9454 26.7652 28.8363 27.4645 29.5355C28.1637 30.2348 29.0546 30.711 30.0245 30.9039C30.9945 31.0968 31.9998 30.9978 32.9134 30.6194C33.827 30.241 34.6079 29.6001 35.1573 28.7778C35.7068 27.9556 36 26.9889 36 26C35.9984 24.6744 35.4711 23.4035 34.5338 22.4662C33.5965 21.5289 32.3256 21.0016 31 21ZM31 22.5854C31.2089 22.5854 31.4131 22.6474 31.5868 22.7634C31.7606 22.8795 31.8959 23.0445 31.9759 23.2375C32.0558 23.4305 32.0768 23.6429 32.036 23.8478C31.9952 24.0527 31.8946 24.2409 31.7469 24.3886C31.5992 24.5364 31.411 24.637 31.2061 24.6777C31.0012 24.7185 30.7888 24.6976 30.5958 24.6176C30.4028 24.5377 30.2378 24.4023 30.1217 24.2286C30.0057 24.0549 29.9437 23.8506 29.9437 23.6417C29.9437 23.503 29.9711 23.3655 30.0242 23.2373C30.0773 23.1091 30.1552 22.9927 30.2533 22.8946C30.3515 22.7965 30.468 22.7187 30.5962 22.6656C30.7245 22.6126 30.8612 22.5853 31 22.5854ZM27.5795 24.6205C27.5795 24.4116 27.6414 24.2074 27.7575 24.0337C27.8736 23.86 28.0385 23.7246 28.2315 23.6446C28.4245 23.5647 28.6369 23.5438 28.8418 23.5845C29.0467 23.6253 29.235 23.7259 29.3827 23.8736C29.5304 24.0213 29.631 24.2096 29.6718 24.4145C29.7125 24.6194 29.6916 24.8317 29.6116 25.0248C29.5317 25.2178 29.3963 25.3827 29.2226 25.4988C29.0489 25.6149 28.8447 25.6768 28.6358 25.6768C28.356 25.6758 28.088 25.5641 27.8902 25.3662C27.6925 25.1684 27.5803 24.9003 27.5795 24.6205ZM31 29.4146C29.694 29.4146 28.6358 28.6324 28.6358 27.6675C28.6358 26.7026 29.6954 25.9212 31 25.9212C32.3046 25.9212 33.3642 26.7033 33.3642 27.6675C33.3642 28.6318 32.306 29.4146 31 29.4146ZM33.3642 25.6768C33.1545 25.6768 32.9495 25.6146 32.7752 25.498C32.6009 25.3814 32.4651 25.2158 32.385 25.0219C32.3049 24.8281 32.2841 24.6149 32.3252 24.4093C32.3664 24.2036 32.4676 24.0148 32.6162 23.8668C32.7647 23.7187 32.9538 23.6181 33.1596 23.5776C33.3653 23.5371 33.5785 23.5585 33.772 23.6392C33.9656 23.7199 34.1308 23.8563 34.2469 24.0309C34.3629 24.2056 34.4245 24.4108 34.4238 24.6205C34.4238 24.7595 34.3964 24.897 34.3432 25.0254C34.2899 25.1537 34.2119 25.2703 34.1135 25.3684C34.0152 25.4665 33.8984 25.5442 33.7699 25.5972C33.6415 25.6501 33.5032 25.6772 33.3642 25.6768Z" fill="#083D77"/>
<path fill-rule="evenodd" clip-rule="evenodd" d="M20.0003 9.64386L34.5517 18.8852C34.7554 19.0146 35.0625 19.0017 35.2438 18.8514L35.8782 18.3251C36.0567 18.177 36.0371 17.9527 35.8321 17.8225L20.6408 8.17465C20.2741 7.94178 19.7266 7.94178 19.3599 8.17465L4.16868 17.8225C3.96474 17.952 3.94131 18.1748 4.12258 18.3251L4.75698 18.8514C4.93549 18.9994 5.24265 19.0163 5.44898 18.8852L20.0003 9.64386ZM20.0004 11.0508L7.35739 19.0802V31.2941C7.35739 31.684 7.79284 32 8.32993 32H31C27 31.5 25 29 25 26C25 22.5 28 19.4008 32.6434 20.2143V19.0802L20.0004 11.0508ZM25.5 20.6923V21.5C24.5 22.5 23.8496 24 23.8496 25.3077H22.2885V29H17.6731V25.3077H13.5193V20.6923H17.6731V17H22.2885V20.6923H25.5Z" fill="#083D77"/>
</svg>
