<svg viewBox="0 0 180 34" fill="none" xmlns="http://www.w3.org/2000/svg">
<path d="M175.733 14.2646C173.468 15.3457 172.59 15.6996 170.422 16.4268C169.193 16.8396 167.709 17.2917 167.123 17.4293C166.557 17.5669 165.874 17.7242 165.639 17.7831C164.722 17.9994 159.704 18.7856 159.412 18.7463C159.236 18.7267 158.572 18.7856 157.908 18.9036C157.264 19.0018 156.659 19.0412 156.561 19.0018C156.483 18.9625 155.605 19.0215 154.629 19.1001C153.652 19.1788 152.754 19.2181 152.637 19.1788C152.54 19.1198 151.817 19.1198 151.056 19.1591C150.295 19.1984 149.475 19.1984 149.24 19.1591C149.006 19.1001 148.264 19.0805 147.6 19.1001C146.097 19.1198 145.609 19.1198 144.848 19.0215C144.516 18.9822 143.872 18.9822 143.442 18.9822C142.993 19.0018 142.31 18.9822 141.939 18.9429C141.353 18.8839 140.026 18.9232 136.57 19.0412C136.199 19.0608 135.36 19.2377 134.696 19.4343C134.052 19.6309 133.29 19.8078 133.017 19.7881C132.744 19.7881 132.509 19.8274 132.47 19.906C132.451 19.965 132.295 19.965 132.158 19.8864C132.002 19.8274 131.201 19.8078 130.362 19.8667C129.542 19.9257 128.683 19.9454 128.468 19.906C128.234 19.8667 127.843 19.9257 127.609 20.0436C125.754 20.9675 125.54 21.0068 124.485 20.7316C123.177 20.3975 123.06 20.3385 123.255 20.1419C123.509 19.906 123.314 19.8667 122.67 20.0436C118.863 21.0854 117.34 21.3213 115.798 21.0461C114.353 20.7906 111.171 20.9478 110.429 21.282C109.726 21.6162 108.321 21.911 107.598 21.8913C107.149 21.8913 107.032 21.8324 106.817 21.5572C106.485 21.1051 106.388 21.0854 106.251 21.3803C106.114 21.6948 106.056 21.7144 105.392 21.5375C104.924 21.4196 104.865 21.3606 104.845 20.9675C104.806 20.3188 104.67 19.5522 104.494 18.9625C104.279 18.2746 103.596 17.96 102.913 18.1959C102.561 18.3335 101.976 18.2942 100.765 18.0387C99.8476 17.8618 99.0082 17.7242 98.9105 17.7438C98.8129 17.7438 98.6177 17.7242 98.4615 17.6652C98.3053 17.6259 97.7001 17.5473 97.1144 17.4883L96.0407 17.39L95.6307 18.078C95.3964 18.4515 95.0841 18.9822 94.9279 19.277C94.557 19.9257 93.9127 20.4368 93.5027 20.3975C93.327 20.3778 93.1709 20.2992 93.1513 20.2402C93.1318 20.1812 92.9561 20.2205 92.7999 20.3188C92.4875 20.5154 87.8411 21.6162 87.685 21.5375C87.6459 21.5179 87.0797 21.5572 86.455 21.6358C84.9908 21.7931 84.0928 21.6751 83.0385 21.2034C82.0624 20.7709 81.5353 20.2599 81.3596 19.5915C81.2815 19.2181 81.1643 19.1001 80.9105 19.0608C80.3834 19.0018 79.4463 19.1198 78.9387 19.336L78.4702 19.5129L78.314 19.1198L78.1774 18.7267L79.7197 18.137C81.3986 17.4883 82.3357 16.82 82.4333 16.2303C82.5309 15.7192 82.0233 14.9526 81.4377 14.6971C80.8715 14.4219 79.3878 14.6184 78.5288 15.0509C77.5526 15.5423 77.4941 15.5816 76.4203 16.2696C75.1708 17.0559 74.1947 18.0976 73.9995 18.8249C73.7847 19.6112 73.5114 19.4539 72.5548 18.0387C70.993 15.7389 69.9973 15.2081 68.0841 15.6602C65.6633 16.2499 65.4485 16.2696 65.1166 16.0927C64.9409 15.9944 64.7262 15.6799 64.6286 15.4244C64.4528 14.8347 64.5895 14.8347 61.6416 15.3064C60.4702 15.503 59.3964 15.6602 59.2598 15.6602C57.9322 15.7192 57.4442 15.7585 56.7218 15.8765C56.2728 15.9354 55.8433 15.9551 55.7847 15.8961C55.6286 15.7585 54.7305 15.8568 54.6524 16.0141C54.6134 16.1123 54.7305 16.191 54.9257 16.2106C55.8628 16.3679 56.2728 16.5448 56.3509 16.82C56.429 17.0755 56.3899 17.1738 56.1166 17.3704C55.9409 17.508 55.7457 17.6062 55.6676 17.5669C55.609 17.5473 54.8672 17.6062 54.0082 17.7045C53.1687 17.8028 52.3878 17.8618 52.2902 17.8225C52.1925 17.7635 51.3921 17.8028 50.5136 17.9011C49.6155 17.9797 48.7956 18.019 48.698 17.9601C48.5808 17.9011 48.1513 17.9207 47.7218 17.9994C47.3118 18.078 46.9019 18.1173 46.8043 18.078C46.7262 18.0387 46.5505 18.0387 46.4138 18.0976C46.2771 18.1566 45.7305 18.2156 45.2229 18.2156C44.6372 18.2352 44.0125 18.3925 43.5244 18.648C39.3466 20.7709 35.6763 22.0486 33.1774 22.2059C32.7674 22.2452 32.006 22.3828 31.4789 22.54C30.5418 22.8152 25.8954 24.8005 24.8216 25.3902C24.5092 25.5671 23.5722 26.0585 22.7132 26.491C20.1166 27.8276 16.1925 30.1471 16.0559 30.4223C16.0364 30.4812 15.7045 30.7171 15.314 30.953C14.2598 31.582 13.186 32.4665 13.3032 32.5845C13.6155 32.8793 13.6936 33.2331 13.5179 33.469C13.3227 33.7049 13.2251 33.6852 12.288 33.2331C11.3704 32.8204 11.1947 32.781 10.8043 32.9186C10.2967 33.0955 10.121 33.0562 10.0038 32.7417C9.92573 32.5255 11.0581 31.1889 12.1513 30.1864C12.4442 29.9309 13.1665 29.2036 13.7522 28.5942C15.3531 26.9824 14.8455 27.3165 19.7847 24.5057C21.0147 23.8177 22.4984 22.9725 23.0841 22.6383C24.2945 21.9307 25.9344 21.0265 27.8086 20.024C30.1123 18.7856 30.8151 18.3925 31.6741 17.9207C32.7088 17.331 37.8433 14.6774 39.0147 14.127C39.4832 13.8912 40.4789 13.4194 41.2012 13.0656C43.7197 11.8469 48.4832 9.78295 50.1427 9.19326C52.3878 8.407 54.8867 7.75833 55.7457 7.77799C56.1947 7.77799 56.5656 7.66005 56.7999 7.44383C57.3075 7.01139 58.0689 6.461 58.3813 6.34307C58.7912 6.16616 59.1426 6.73619 58.8498 7.10967L58.6155 7.38486L59.1427 7.3652C59.455 7.34555 59.9236 7.26692 60.2164 7.20795C60.5092 7.12932 60.9583 7.09001 61.2121 7.10967C61.4659 7.12932 62.1101 7.07036 62.6567 6.97207C63.5938 6.83448 63.711 6.77551 65.429 5.36024C66.4051 4.55433 67.2446 3.94497 67.2837 4.00394C67.3227 4.06291 67.3227 4.49536 67.2641 4.94746C67.186 5.71406 67.2056 5.77303 67.557 5.85165C67.7522 5.89097 68.006 5.89097 68.1036 5.85165C68.2012 5.832 68.3964 5.85165 68.5136 5.91062C68.8259 6.02856 70.1925 5.93028 70.7587 5.73371C71.3249 5.53715 71.852 5.12436 72.0277 4.71158C72.1839 4.37742 72.6134 4.37742 73.4138 4.73123C73.609 4.82952 73.8043 4.80986 73.9214 4.65261C74.0385 4.49536 74.2728 4.4757 74.7218 4.61329C75.0732 4.71158 75.3661 4.71158 75.4051 4.61329C75.4832 4.43639 77.1036 4.65261 81.1058 5.3799C82.2771 5.59612 83.3314 5.73371 83.429 5.71406C83.5461 5.67474 83.8975 5.73371 84.2099 5.832C84.8151 6.04822 86.7283 6.2841 87.0212 6.18581C87.1188 6.1465 87.275 6.16616 87.3921 6.20547C87.6069 6.30375 91.6871 6.55929 91.9604 6.50032C92.058 6.461 92.6047 6.53963 93.1709 6.65757C94.6741 6.95242 96.8607 7.24726 97.0559 7.16864C97.1535 7.12933 97.3292 7.14898 97.4463 7.20795C97.8758 7.40452 100.121 7.54211 101.741 7.48314C102.737 7.46349 104.006 7.28658 104.826 7.0507L106.232 6.67723L106.642 7.10967C106.876 7.3652 107.208 7.58142 107.52 7.64039C108.418 7.85662 109.765 7.20795 110.488 6.22513C110.644 6.00891 110.839 5.85165 110.898 5.89097C110.976 5.91062 111.054 5.85165 111.112 5.73371C111.268 5.39955 111.542 5.51749 112.518 6.2841C113.065 6.71654 113.885 7.22761 114.49 7.5028C115.427 7.91558 115.583 7.93524 116.013 7.77799C116.54 7.58142 116.657 7.22761 116.598 6.20547C116.54 5.39955 116.598 5.34058 117.106 5.71406C117.36 5.89097 117.672 6.10719 117.828 6.16616C117.965 6.24478 118.121 6.36272 118.18 6.44135C118.238 6.51997 118.843 7.01139 119.546 7.52246C120.815 8.44631 120.854 8.46597 122.631 9.01635C124.7 9.64536 126.594 9.99917 127.023 9.84192C127.18 9.78295 127.355 9.74364 127.414 9.78295C127.492 9.80261 127.629 9.72398 127.726 9.60604C127.843 9.4881 128.175 9.35051 128.468 9.3112C128.937 9.27188 129.268 9.37017 130.596 9.97952L132.177 10.7068L132.997 10.3923C133.466 10.2154 134.032 10.0778 134.266 10.0581C134.969 10.0188 137.351 10.5299 138.6 11.0017C139.889 11.4931 140.416 11.4931 140.767 11.041C140.904 10.8641 141.295 10.4906 141.626 10.2154C142.31 9.6257 142.876 9.52742 143.266 9.95986C143.442 10.1761 143.696 10.2154 144.477 10.1564C145.004 10.1368 145.511 10.0778 145.57 10.0385C145.648 9.99917 145.824 9.99917 145.98 10.0385C146.331 10.1368 146.605 9.78295 147.308 8.19077L147.932 6.83448L148.869 6.61826C149.396 6.48066 149.885 6.40204 149.943 6.44135C150.021 6.461 150.548 6.38238 151.114 6.24478C152.13 6.00891 152.422 5.98925 152.344 6.20547C152.305 6.24478 151.993 6.67723 151.622 7.14898C150.958 7.97455 150.939 8.01387 151.173 8.11215C151.59 8.29561 152.117 8.2694 152.754 8.03352C153.321 7.8173 153.36 7.8173 153.321 8.11215C153.301 8.28906 153.321 8.44631 153.379 8.46597C153.438 8.48562 153.496 8.70184 153.496 8.91807C153.496 9.38982 153.731 9.40948 154.121 9.01635C154.433 8.70184 154.882 8.8591 155.097 9.33085C155.312 9.80261 156.932 10.5299 157.537 10.4316C157.928 10.353 158.006 10.2744 158.357 9.44879L158.767 8.56425L158.904 9.15394C159.197 10.3137 159.744 10.6871 161.793 11.1982C162.418 11.3555 163.492 11.7289 164.175 12.0238C165.288 12.5349 165.444 12.5545 165.835 12.3973C166.069 12.299 166.557 12.2597 166.908 12.299C167.514 12.3973 167.553 12.3776 167.65 11.9648C167.767 11.3555 168.099 11.4341 169.056 12.2793C170.403 13.498 171.711 14.0091 172.707 13.6749C172.96 13.5767 173.234 13.5373 173.312 13.557C173.39 13.5963 173.761 13.5373 174.151 13.4194C174.561 13.3015 175.284 13.1639 175.772 13.0852C176.494 12.987 176.689 13.0066 176.787 13.2032C176.982 13.616 176.845 13.7536 175.733 14.2646Z" fill="black"/>
</svg>
