<svg viewBox="0 0 180 34" fill="none" xmlns="http://www.w3.org/2000/svg">
<path d="M151.907 17.7556C150.911 18.3453 148.393 19.3871 146.909 19.8195C142.887 20.9792 141.013 21.1758 138.709 20.6451C138.026 20.4878 137.44 20.4092 137.421 20.4682C137.382 20.5468 137.323 20.5271 137.265 20.4682C137.128 20.2519 136.093 20.2716 135.098 20.5075C134.59 20.6451 133.946 20.7827 133.633 20.8613C133.34 20.9203 132.521 21.1365 131.818 21.3331C129.924 21.8638 129.573 21.8638 128.186 21.4117C126.996 20.9989 125.531 20.822 124.965 20.9989C124.809 21.0579 124.262 21.0972 123.755 21.0972C123.247 21.1168 122.486 21.2151 122.056 21.3134C121.627 21.4117 121.139 21.51 120.944 21.51C120.748 21.5296 120.104 21.6869 119.518 21.8441C118.913 22.021 118.386 22.139 118.327 22.1193C118.288 22.0997 117.254 22.3748 116.063 22.7287C114.852 23.0825 113.779 23.3184 113.662 23.2594C113.544 23.2004 112.588 23.0628 111.514 22.9252C109.601 22.709 109.601 22.709 109.249 23.1415C108.742 23.7508 108.234 23.9474 107.688 23.7508C107.16 23.5739 106.692 23.1808 106.77 23.0039C106.789 22.9449 106.731 22.768 106.614 22.6304C106.458 22.4142 106.223 22.3552 105.501 22.3748C104.993 22.3945 104.525 22.4338 104.486 22.4928C104.427 22.5321 104.31 22.5518 104.212 22.4928C104.095 22.4535 103.588 22.4928 103.061 22.5714C102.514 22.6697 101.85 22.7876 101.557 22.8269C100.718 22.9449 98.0042 23.5149 96.7743 23.8294C96.1496 23.967 95.6225 24.085 95.5834 24.0653C95.5444 24.0456 95.6029 23.8294 95.7201 23.5739C95.8372 23.3184 95.8763 23.0825 95.7982 23.0432C95.7201 23.0039 95.642 23.0432 95.6225 23.1021C95.5834 23.1611 95.3296 23.2004 95.0563 23.2004C94.5878 23.1808 93.7092 23.279 90.2146 23.8294C89.4142 23.9474 88.6919 24.0063 88.5747 23.967C88.4771 23.9277 87.8719 23.9277 87.2277 23.9867C84.5921 24.2029 79.6919 23.338 79.7309 22.65C79.7309 22.5321 79.5357 22.2962 79.2624 22.1193C78.7548 21.7655 76.5682 21.1758 76.1973 21.2741C76.0216 21.3331 75.9435 21.1955 75.924 20.763C75.8654 20.1537 75.5921 19.8981 75.1821 20.1143C74.6159 20.3895 72.9956 21.8441 72.8394 22.1979C72.7418 22.4142 72.6051 22.5518 72.5465 22.5321C72.4684 22.4928 72.2927 22.6304 72.1561 22.8269C72.0194 23.0235 71.8632 23.1808 71.8437 23.1808C71.8242 23.1611 71.5118 22.768 71.1409 22.2962C70.7114 21.7458 70.2819 21.3527 69.95 21.2151L69.4424 20.9792L68.9739 21.8834C68.4858 22.8466 68.0758 23.1808 67.7439 22.8466C67.6658 22.768 67.5878 22.5124 67.5878 22.3159C67.5682 21.9031 66.9435 21.0775 66.4359 20.8613C66.2602 20.7827 64.8936 20.3699 63.4099 19.9571L60.7157 19.1905L60.3058 19.8195L59.8763 20.4485L57.9435 19.9178C56.7526 19.5836 55.8155 19.4067 55.5422 19.446C53.9804 19.7016 49.9587 21.6082 46.3079 23.8294C45.9956 24.0063 45.9565 24.085 45.9565 24.6747C45.9565 25.0285 45.9956 25.343 46.0541 25.3626C46.0932 25.3823 46.0346 25.8934 45.9175 26.5027C45.7222 27.5445 45.6832 27.6428 45.2342 28.0949C44.6485 28.7042 44.2776 28.8222 43.5943 28.6649C43.0086 28.5273 42.9891 28.4487 43.3795 28.1539C43.4966 28.0556 43.6138 27.859 43.6333 27.7214C43.6333 27.5248 43.5747 27.4855 43.2038 27.5052C42.9695 27.5248 42.4034 27.4069 41.9543 27.2693C40.8025 26.9155 38.9478 27.0727 37.4446 27.6231L36.2537 28.0752L35.8632 27.5445C35.2971 26.7582 35.0628 26.7189 34.2819 27.23C33.8914 27.4659 33.5596 27.7411 33.5205 27.8393C33.4619 27.9376 33.3838 27.9966 33.3253 27.9769C33.2862 27.9376 32.8372 28.2521 32.3687 28.6649C31.9001 29.058 31.4706 29.3726 31.4316 29.3529C31.3925 29.3332 31.2559 29.0384 31.1192 28.7042C30.9825 28.3701 30.8068 28.1145 30.7483 28.1342C30.6897 28.1539 30.3383 28.8811 29.9674 29.7264C29.5964 30.5913 29.245 31.2596 29.1865 31.2203C29.1279 31.2006 29.0107 31.004 28.9522 30.7878C28.7374 30.1392 28.3079 29.7067 27.488 29.3529C26.7852 29.0384 26.629 29.0187 25.6723 29.235C24.6181 29.4512 22.8611 30.1195 22.3925 30.4733C22.1973 30.6306 22.0606 30.6109 21.8264 30.434C21.553 30.1981 21.553 30.1195 21.7873 29.6674C21.9435 29.3726 22.0997 29.176 22.1582 29.1956C22.1973 29.2153 22.3925 29.0187 22.5487 28.7829C22.7244 28.5273 22.9196 28.3111 22.9782 28.2914C23.1344 28.2521 24.95 26.3848 25.0281 26.1882C25.0671 26.0899 25.3209 25.854 25.5747 25.6378C26.9609 24.5371 27.3513 24.1832 27.4489 23.9474C27.5075 23.8098 27.937 23.4363 28.386 23.1021C28.835 22.7876 29.655 22.139 30.2016 21.6869C30.7678 21.2348 31.3144 20.8023 31.4316 20.7237C31.5487 20.6451 32.271 20.134 33.052 19.6033C33.8329 19.0726 34.77 18.4239 35.1604 18.1487C35.5509 17.8932 36.5661 17.2838 37.4446 16.8121C38.3036 16.3206 39.1626 15.8489 39.3383 15.731C40.6854 14.8857 46.6203 12.4876 48.8068 11.8979C49.2559 11.78 50.4272 11.4262 51.4424 11.092L53.258 10.4827L53.7266 9.40156L54.2147 8.3008L54.8589 8.20252C55.2103 8.14355 55.6203 8.08458 55.796 8.08458C56.0888 8.10424 58.0802 7.86836 58.2363 7.78973C58.2949 7.77008 58.6658 7.73076 59.0758 7.7111C59.7786 7.67179 59.8177 7.69145 60.2081 8.10424C60.4229 8.34011 60.6376 8.55633 60.6572 8.55633C60.6962 8.57599 61.0086 8.37943 61.36 8.12389C63.1951 6.78725 66.9045 5.31301 68.0563 5.45061C68.3687 5.48992 68.642 5.47027 68.6615 5.4113C68.7006 5.35233 68.8567 5.35233 69.0129 5.43095C69.5205 5.66683 70.8285 5.37198 73.0541 4.54641L75.1626 3.76015L76.334 4.17294C77.4858 4.60538 77.5248 4.60538 78.1691 4.31053C78.5205 4.13362 78.9891 3.87809 79.1843 3.72084C79.5943 3.38668 80.1018 3.32771 80.3361 3.56359C80.629 3.85844 80.4923 4.15328 79.8676 4.5071C79.5357 4.70366 79.1062 5.09679 78.9305 5.37199L78.5791 5.90271L79.2428 5.84374L79.9261 5.80443L80.0433 6.23687L80.1604 6.66931L80.9609 6.3155C81.3904 6.09928 81.7808 5.90271 81.8003 5.84374C81.9175 5.62752 82.1127 5.90271 82.1517 6.35481C82.1908 6.63 82.347 6.9445 82.5032 7.04279C82.8155 7.25901 84.8068 7.96664 84.9435 7.90767C85.0021 7.88801 85.4511 7.27866 85.9392 6.55137C86.4468 5.80443 86.9153 5.19508 86.9934 5.17542C88.5357 4.76263 89.3166 4.60538 91.5617 4.23191C93.0064 3.97637 94.4706 3.79947 94.783 3.83878C95.0953 3.89775 95.3687 3.87809 95.3882 3.83878C95.4077 3.79947 95.7396 3.93706 96.1496 4.13363C96.7157 4.44813 96.911 4.62504 97.1062 5.09679C97.4966 6.00099 98.0042 6.51206 98.8437 6.88553C99.488 7.18038 99.6051 7.27866 99.6246 7.59317C99.6441 7.80939 99.6246 7.9863 99.5856 7.9863C99.527 8.00595 98.9804 8.12389 98.3361 8.24183C97.6919 8.37943 97.1452 8.49736 97.1257 8.53668C97.0671 8.65462 97.1648 9.87332 97.2819 10.6792L97.399 11.4655L97.809 11.21C98.0238 11.0724 98.4923 10.7185 98.8242 10.4237C99.1756 10.1485 99.527 9.91263 99.6246 9.93229C99.7027 9.93229 99.7613 10.1682 99.7418 10.463C99.7222 10.7382 99.7418 11.21 99.7808 11.5048C99.8394 12.0159 99.8784 12.0355 100.366 12.1142C100.874 12.1731 100.933 12.1338 101.323 11.4655C101.577 11.0527 101.87 10.7382 102.026 10.6989C102.494 10.581 102.904 10.8365 102.983 11.3082C103.08 11.9372 103.568 12.5859 104.564 13.3722C105.735 14.296 106.946 14.6695 107.824 14.355C108.527 14.0995 108.82 14.2174 108.917 14.7678C109.015 15.4361 109.191 15.3771 109.542 14.5712C109.835 13.9029 109.894 13.8439 110.284 13.8636C110.753 13.8832 110.753 13.8636 110.889 14.984C110.987 15.8489 110.987 15.8685 111.592 16.0848C112.412 16.3796 113.74 16.6155 114.638 16.5958C115.048 16.5958 115.829 16.5958 116.356 16.5958C116.883 16.5762 117.781 16.4779 118.366 16.3403C118.952 16.2224 119.577 16.0848 119.792 16.0455C119.987 16.0061 120.944 15.7899 121.9 15.554C122.876 15.3378 123.794 15.1413 123.97 15.1413C124.458 15.1019 122.037 13.9619 120.319 13.3918C119.343 13.0773 118.894 12.8611 118.816 12.7039C118.581 12.2124 119.128 11.8979 119.85 12.1338C120.104 12.2124 120.377 12.2518 120.514 12.2124C120.631 12.1731 120.729 12.1928 120.768 12.2518C120.826 12.4287 122.505 12.5269 124.223 12.4483C126.098 12.35 127.737 12.1338 129.143 11.8193L130.158 11.5834L130.724 13.2149L131.271 14.8661L132.345 14.6695C132.911 14.5712 133.438 14.4926 133.516 14.5319C133.575 14.5516 133.75 14.5319 133.887 14.4533C134.024 14.3943 134.16 14.3943 134.219 14.4533C134.258 14.5319 135.605 14.925 137.186 15.3575L140.056 16.1044L141.813 15.613L143.57 15.1216L145.132 15.6327C146.987 16.2224 148.705 16.6155 149.349 16.5958C149.603 16.5762 149.935 16.6155 150.091 16.6941C150.228 16.7531 150.755 16.7727 151.243 16.7334C151.965 16.6548 152.18 16.6941 152.336 16.8907C152.59 17.2248 152.492 17.4018 151.907 17.7556Z" fill="black"/>
</svg>
