<svg viewBox="0 0 180 34" fill="none" xmlns="http://www.w3.org/2000/svg">
<path d="M170.024 14.7735C169.126 15.1667 166.471 16.0315 165.514 16.2281C165.241 16.2871 164.421 16.464 163.679 16.6016C162.937 16.7392 162 16.9554 161.609 17.0733C161.219 17.1913 160.809 17.2503 160.731 17.2109C160.653 17.1716 160.243 17.2109 159.813 17.3092C159.403 17.3878 158.662 17.5058 158.154 17.5451C157.646 17.5844 156.924 17.663 156.534 17.7417C156.163 17.8006 155.499 17.8596 155.089 17.8596C154.659 17.8596 153.761 17.9186 153.098 18.0169C152.414 18.1151 151.79 18.1545 151.711 18.1151C151.497 18.0365 149.622 18.1151 149.31 18.2331C149.193 18.2921 148.842 18.3117 148.568 18.292C148.275 18.2724 147.338 18.292 146.479 18.351C145.62 18.3903 144.82 18.3903 144.722 18.351C144.625 18.3117 143.688 18.3117 142.633 18.3707C141.599 18.4296 140.662 18.4493 140.564 18.41C140.486 18.3707 139.744 18.351 138.944 18.3903C138.143 18.41 136.347 18.4493 134.941 18.4493C133.555 18.4689 132.189 18.5083 131.935 18.5672C131.681 18.6065 131.076 18.6459 130.588 18.6459C129.495 18.6459 126.508 19.1373 125.922 19.4125C125.688 19.5107 125.375 19.7073 125.219 19.8253C125.063 19.9432 124.829 19.9825 124.633 19.8842C124.438 19.8056 124.262 19.8253 124.223 19.9235C124.165 20.0415 123.931 20.0808 123.657 20.0218C123.403 19.9628 123.111 19.9432 123.013 19.9628C122.915 19.9825 122.408 19.9628 121.881 19.9235C121.275 19.8842 120.846 19.9432 120.729 20.0808C120.631 20.1987 120.495 20.2773 120.416 20.238C120.358 20.2184 120.182 20.3756 120.006 20.6115C119.85 20.8474 119.694 21.044 119.655 21.0243C119.616 21.0046 119.245 20.5722 118.835 20.0808L118.074 19.1569L117.137 19.3142C116.18 19.4714 115.184 19.8842 115.067 20.1791C115.028 20.2577 114.657 20.4149 114.267 20.5132C113.466 20.7294 109.464 20.985 108.82 20.867C108.586 20.8277 107.785 20.8081 107.043 20.8277C106.048 20.8474 105.54 20.7884 105.072 20.5722C104.31 20.238 104.173 20.2577 102.104 21.0243C100.679 21.555 99.937 21.7319 98.258 21.9088C98.1019 21.9285 97.8286 21.9678 97.6919 22.0071C97.5357 22.0661 97.1843 21.9678 96.9305 21.8302C96.5205 21.614 96.4034 21.4371 96.2863 20.8277C96.1105 19.9825 96.052 19.9432 95.4077 19.9825C94.8025 20.0218 94.7049 19.9629 94.7439 19.609C94.8025 19.1373 94.4706 19.098 93.4555 19.4125C92.9479 19.5894 92.3036 19.7073 92.0108 19.6877C91.7179 19.6483 91.4641 19.668 91.4446 19.7073C91.4251 19.7466 91.2884 19.727 91.1127 19.668C90.8589 19.5697 87.5791 18.7245 86.193 18.41C85.9782 18.3707 85.4902 18.5869 84.8264 19.0193C82.4056 20.6115 79.1453 22.0071 77.6225 22.0857C77.3687 22.1054 76.8806 22.1447 76.5683 22.2037C75.7483 22.302 74.0498 21.9875 73.0542 21.5354C72.2928 21.2012 72.1561 21.0833 71.7852 20.4346C71.3752 19.7466 70.7895 19.098 70.4381 18.9211C70.3405 18.8817 69.8134 18.98 69.2667 19.1176C68.2125 19.4125 67.6268 19.3142 67.5878 18.8228C67.5292 18.2331 69.052 17.4861 69.9305 17.6827C70.1648 17.722 70.6138 17.6827 70.9262 17.5844C71.4338 17.4272 71.4923 17.3682 71.4923 17.0144C71.5119 16.7981 71.5704 16.4247 71.629 16.1888C71.7071 15.9726 71.7071 15.717 71.6485 15.6384C71.6095 15.5598 71.6095 15.3043 71.6876 15.0684C71.7461 14.8522 71.8242 14.6163 71.8437 14.5573C71.8633 14.4983 71.8047 14.4394 71.7461 14.4001C71.668 14.3608 71.4142 14.6359 71.1604 14.9701C70.7309 15.5794 70.6528 15.6188 69.7743 15.717C68.681 15.835 68.5639 15.7957 68.4077 15.3043C68.3296 15.088 68.232 14.9111 68.1735 14.8718C68.1344 14.8522 67.8025 15.1273 67.4316 15.5008C67.0802 15.8743 66.6702 16.1888 66.5335 16.2281C66.3969 16.2674 66.2602 16.3657 66.2407 16.4247C66.1431 16.6212 64.5422 17.6434 64.2103 17.7023C63.8199 17.781 63.7223 17.9775 63.8784 18.41C63.9761 18.7245 63.9565 18.7638 63.6246 18.9211C63.1171 19.1373 62.4728 18.9407 61.5748 18.2331C60.4229 17.3879 59.7591 17.1127 58.8416 17.1716C58.0802 17.1913 58.0607 17.1913 57.8264 16.7982C57.2017 15.776 55.5032 15.3829 54.0585 15.9333L53.2776 16.2478L53.0043 15.5401C52.6724 14.7146 52.4381 14.6753 52.0476 15.3829C51.8329 15.7564 51.6572 15.8743 51.3253 15.9136C50.9153 15.9333 50.8763 15.894 50.7396 15.4419L50.603 14.9504L49.4121 15.2453C48.7678 15.4025 48.1821 15.5008 48.1236 15.4812C48.065 15.4419 47.616 15.4812 47.1669 15.5598C44.6876 15.9529 42.2667 15.9726 40.2754 15.5794C39.7678 15.4812 38.9283 15.4615 38.4207 15.5401C37.9131 15.6188 37.4641 15.6581 37.4251 15.6384C37.2884 15.5794 34.6333 16.3264 32.9153 16.8964C31.0021 17.5451 26.668 19.4125 25.2624 20.1987C23.6225 21.1226 23.232 21.3781 22.5487 22.0268C21.924 22.6361 21.885 22.6558 21.475 22.4199C21.2602 22.302 21.0455 22.1447 21.0455 22.1054C21.0259 22.0661 21.2407 21.7909 21.514 21.4961C22.2949 20.6901 22.5878 20.1791 22.3535 20.0808C22.1387 19.9825 17.4533 21.8695 15.3253 22.9113C14.681 23.2258 13.744 23.6779 13.2364 23.9138C10.5227 25.1915 8.33614 26.4298 7.49666 27.1571C7.1843 27.4127 6.89146 27.6485 6.81337 27.6682C6.7548 27.6682 6.501 27.8254 6.28625 28.022C6.05198 28.1989 5.83723 28.3365 5.8177 28.3365C5.62248 28.2382 5.23202 27.6682 5.29059 27.5503C5.3882 27.3144 7.04764 25.8991 8.23853 25.0146C8.66803 24.6804 9.07801 24.3069 9.13658 24.189C9.19515 24.0711 9.35133 23.9335 9.48799 23.8745C9.62465 23.8155 9.97606 23.5796 10.2494 23.3634C10.5422 23.1472 11.1865 22.6361 11.6941 22.2233C12.5726 21.555 12.924 21.2798 14.4077 20.1791C14.9739 19.727 15.9305 19.0586 18.488 17.2896C19.0932 16.8768 19.8546 16.3854 20.1474 16.2085C20.4598 16.0315 20.8893 15.7564 21.1431 15.5794C23.0368 14.2625 26.8242 12.5917 28.9132 12.1592C29.3427 12.0609 29.6941 11.9627 29.6941 11.9233C29.655 11.5695 30.0455 11.3336 31.0802 11.0978C32.1539 10.8619 33.2082 10.6064 36.3904 9.76113C41.2125 8.50311 43.4967 7.57926 45.3123 6.14434C45.7808 5.77086 46.5032 5.25979 46.9132 5.00426C47.3427 4.74872 47.7136 4.47353 47.7331 4.3949C47.8307 4.19834 48.6702 3.72658 48.8264 3.80521C48.9045 3.84452 48.7288 4.27696 48.2993 5.08288C47.7331 6.16399 47.6745 6.32124 47.8502 6.39987C48.0845 6.49815 49.2559 6.41953 50.3101 6.24262C50.681 6.18365 51.3253 6.06571 51.7743 6.00674C53.3752 5.75121 55.6984 5.04357 55.8351 4.76838C55.8741 4.6701 55.9912 4.61113 56.0889 4.61113C56.2255 4.63079 56.3817 4.39491 56.5574 3.94281L56.8502 3.25483L58.1778 2.88136C58.9001 2.68479 59.5639 2.52754 59.642 2.56686C59.7201 2.60617 59.6615 2.74376 59.4858 2.95998C59.3296 3.13689 59.1735 3.47105 59.1344 3.66762L59.0368 4.04109L59.9348 3.84453C60.4424 3.74624 60.9891 3.66762 61.1648 3.66762C61.321 3.68727 62.18 3.58899 63.0585 3.47105C63.9565 3.35311 65.2255 3.3138 65.8893 3.37277C66.5531 3.43174 67.2168 3.4514 67.334 3.43174C67.4511 3.39243 67.5878 3.43174 67.6268 3.49071C67.744 3.66762 73.1518 4.78804 74.206 4.84701C74.3427 4.84701 74.5769 4.88632 74.7526 4.94529C75.2212 5.08288 80.1604 5.8888 80.668 5.90846C80.9023 5.90846 81.2928 5.96743 81.488 6.04605C81.9565 6.18365 85.2168 6.53747 85.4706 6.4785C85.5682 6.45884 85.8611 6.49815 86.1344 6.55712C86.6811 6.69471 88.1062 6.63574 89.1214 6.45883C89.4923 6.39987 89.9609 6.38022 90.1756 6.41953C90.8003 6.53747 98.2581 6.30159 99.4685 6.10502C99.9565 6.0264 100.425 5.98709 100.523 6.0264C100.601 6.06571 101.167 5.90845 101.772 5.67258L102.865 5.24014L103.744 5.73155C104.837 6.36055 105.403 6.53747 106.34 6.4785C107.59 6.39987 108.098 6.26227 108.449 5.8888C108.644 5.67258 108.859 5.55464 108.918 5.59395C109.503 6.02639 113.076 7.81513 113.935 8.12963C115.301 8.62105 117.098 9.03384 117.566 8.95521C118.718 8.79796 123.286 9.52525 124.536 10.0953C124.868 10.2525 125.219 10.2132 126.176 9.89872C127.113 9.60388 127.62 9.5449 128.636 9.62353C129.338 9.70216 130.08 9.72182 130.275 9.68251C130.51 9.66285 130.978 9.80045 131.505 10.056C132.013 10.3115 132.442 10.4294 132.54 10.3705C132.618 10.3312 132.833 10.2919 133.028 10.3115C133.438 10.3705 134.356 9.91838 134.492 9.62353C134.551 9.48593 134.766 9.30903 134.98 9.2304C135.312 9.07315 135.449 9.11246 136.406 9.62353C137.694 10.3115 138.241 10.3115 139.275 9.62353C139.939 9.17143 140.017 9.0928 140.466 7.97238C141.091 6.47849 141.345 6.22296 142.243 6.2033C142.614 6.2033 143.297 6.10502 143.727 5.98708C144.312 5.81017 144.586 5.81017 144.898 5.98708C145.249 6.18364 145.269 6.26227 145.093 6.71437C144.872 7.36959 145.119 7.52029 145.835 7.16647C146.518 6.83231 147.26 7.12716 147.26 7.73651C147.26 8.10998 147.69 8.48346 147.807 8.20827C147.885 8.03136 148.275 8.22792 148.627 8.66037C148.998 9.15178 149.369 9.28937 150.423 9.40731C150.911 9.44662 151.458 9.52525 151.633 9.58422C151.887 9.66285 152.063 9.58421 152.278 9.30902C152.531 8.97486 152.649 8.95521 153 9.11246C153.293 9.2304 153.39 9.368 153.351 9.58422C153.312 9.76113 153.39 9.89872 153.488 9.89872C153.586 9.91838 154.035 10.0363 154.484 10.1543C155.382 10.4295 155.46 10.4098 157.139 9.42697C157.763 9.07315 158.33 8.7783 158.369 8.79796C158.427 8.81762 158.252 9.30903 157.978 9.89872C157.549 10.8029 157.51 10.9798 157.646 11.255C157.998 11.8644 158.74 12.1789 159.989 12.2182C160.633 12.2575 161.258 12.2575 161.356 12.2182C161.59 12.1592 162.781 12.2378 165.573 12.5523C166.783 12.6703 167.818 12.7686 167.876 12.7489C167.935 12.7293 168.052 12.7489 168.169 12.7882C168.286 12.8472 168.931 13.0044 169.633 13.142C170.668 13.3583 170.922 13.4565 171.019 13.6728C171.234 14.1052 171.019 14.3607 170.024 14.7735Z" fill="black"/>
</svg>
