<svg width="144" height="45" viewBox="0 0 144 45" fill="none" xmlns="http://www.w3.org/2000/svg">
<g clip-path="url(#clip0_2033_47)">
<path d="M27.4345 12.6907C28.4337 12.0261 28.705 10.6774 28.0405 9.67815C27.376 8.67893 26.0272 8.40761 25.028 9.07214C24.0288 9.73668 23.7575 11.0854 24.422 12.0846C25.0865 13.0839 26.4353 13.3552 27.4345 12.6907Z" fill="#083d77"/>
<path d="M25.9243 16.3048C26.4239 15.9725 26.5596 15.2982 26.2273 14.7985C25.895 14.2989 25.2206 14.1633 24.721 14.4955C24.2214 14.8278 24.0858 15.5022 24.418 16.0018C24.7503 16.5014 25.4247 16.6371 25.9243 16.3048Z" fill="#083d77"/>
<path d="M31.9572 9.6827C32.7899 9.12892 32.9262 7.86996 32.2616 6.87074C31.5971 5.87151 30.3834 5.51041 29.5507 6.06419C28.718 6.61796 28.5817 7.87693 29.2462 8.87615C29.9108 9.87537 31.1245 10.2365 31.9572 9.6827Z" fill="#083d77"/>
<path d="M36.1762 9.48644C36.6759 9.15415 36.8115 8.4798 36.4792 7.98019C36.147 7.48058 35.4726 7.3449 34.973 7.67718C34.4733 8.00947 34.3377 8.68383 34.67 9.18344C35.0022 9.68305 35.6766 9.81873 36.1762 9.48644Z" fill="#083d77"/>
<path d="M34.4152 17.3989C35.7018 16.5433 36.6132 17.0244 37.731 16.281C38.901 15.5029 39.3652 14.3787 38.2372 12.6825C36.302 9.77264 32.1923 11.2663 30.9057 12.1219C29.6192 12.9775 26.6526 16.19 28.5878 19.0998C29.7159 20.796 30.9322 20.8026 32.1022 20.0245C33.2722 19.2464 33.1286 18.2545 34.4152 17.3989Z" fill="#083d77"/>
</g>
<g clip-path="url(#clip1_2033_47)">
<path d="M45.3156 4.98918C46.0286 5.16415 46.7485 4.72797 46.9235 4.01496C47.0984 3.30195 46.6622 2.5821 45.9492 2.40713C45.2362 2.23217 44.5164 2.66834 44.3414 3.38136C44.1664 4.09437 44.6026 4.81422 45.3156 4.98918Z" fill="#083d77"/>
<path d="M43.0621 5.80538C43.4186 5.89287 43.7785 5.67478 43.866 5.31827C43.9535 4.96177 43.7354 4.60184 43.3789 4.51436C43.0224 4.42688 42.6625 4.64496 42.575 5.00147C42.4875 5.35797 42.7056 5.7179 43.0621 5.80538Z" fill="#083d77"/>
<path d="M48.5428 5.78111C49.137 5.92691 49.7605 5.4671 49.9355 4.75409C50.1105 4.04107 49.7706 3.34486 49.1764 3.19906C48.5823 3.05326 47.9587 3.51307 47.7838 4.22608C47.6088 4.9391 47.9487 5.63531 48.5428 5.78111Z" fill="#083d77"/>
<path d="M50.3775 7.6003C50.7341 7.68779 51.094 7.4697 51.1815 7.11319C51.2689 6.75669 51.0509 6.39677 50.6943 6.30928C50.3378 6.22179 49.9779 6.43989 49.8904 6.79639C49.8029 7.1529 50.021 7.51282 50.3775 7.6003Z" fill="#083d77"/>
<path d="M45.5939 9.96234C46.512 10.1876 46.6726 10.7974 47.4702 10.9931C48.3051 11.1979 49.0037 10.9416 49.3007 9.73129C49.8102 7.6549 47.436 6.42214 46.5179 6.19685C45.5999 5.97157 42.9247 5.96529 42.4152 8.04169C42.1182 9.25202 42.6188 9.8026 43.4537 10.0075C44.2885 10.2123 44.6759 9.73706 45.5939 9.96234Z" fill="#083d77"/>
</g>
<g clip-path="url(#clip2_2033_47)">
<path d="M115.457 31.5632C116.274 32.0261 117.311 31.7395 117.774 30.923C118.237 30.1066 117.95 29.0695 117.134 28.6066C116.317 28.1438 115.28 28.4304 114.817 29.2469C114.354 30.0633 114.641 31.1004 115.457 31.5632Z" fill="#083d77"/>
<path d="M112.401 31.7845C112.809 32.016 113.328 31.8727 113.559 31.4644C113.791 31.0562 113.647 30.5377 113.239 30.3063C112.831 30.0748 112.312 30.2181 112.081 30.6264C111.85 31.0346 111.993 31.5531 112.401 31.7845Z" fill="#083d77"/>
<path d="M119.152 33.6584C119.833 34.0441 120.76 33.695 121.222 32.8785C121.685 32.0621 121.509 31.0875 120.829 30.7018C120.148 30.3161 119.221 30.6653 118.759 31.4817C118.296 32.2982 118.472 33.2727 119.152 33.6584Z" fill="#083d77"/>
<path d="M120.779 36.5336C121.187 36.765 121.706 36.6217 121.937 36.2135C122.169 35.8052 122.025 35.2867 121.617 35.0553C121.209 34.8238 120.69 34.9672 120.459 35.3754C120.227 35.7836 120.371 36.3021 120.779 36.5336Z" fill="#083d77"/>
<path d="M114.601 38.0778C115.652 38.6738 115.638 39.4797 116.552 39.9975C117.508 40.5395 118.456 40.4667 119.242 39.0808C120.59 36.7032 118.097 34.3621 117.046 33.7661C115.994 33.1702 112.705 32.2334 111.358 34.611C110.572 35.9969 110.996 36.8481 111.952 37.3901C112.908 37.9321 113.55 37.4819 114.601 38.0778Z" fill="#083d77"/>
</g>
<defs>
<clipPath id="clip0_2033_47">
<rect width="17.3827" height="17.3827" fill="white" transform="translate(19 10.4717) rotate(-33.626)"/>
</clipPath>
<clipPath id="clip1_2033_47">
<rect width="10.6346" height="10.6346" fill="white" transform="translate(42.8232 0.271484) rotate(13.7872)"/>
</clipPath>
<clipPath id="clip2_2033_47">
<rect width="13.5947" height="13.5947" fill="white" transform="translate(114.029 24.8936) rotate(29.5501)"/>
</clipPath>
</defs>
</svg>
