<svg width="144" height="49" viewBox="0 0 144 49" fill="none" xmlns="http://www.w3.org/2000/svg">
<g clip-path="url(#clip0_4017_724)">
<path d="M27.4706 13.4464C28.3098 12.5886 28.2947 11.2129 27.4368 10.3737C26.579 9.53458 25.2033 9.5497 24.3642 10.4075C23.525 11.2653 23.5401 12.641 24.398 13.4802C25.2558 14.3194 26.6315 14.3042 27.4706 13.4464Z" fill="#0A0A0A"/>
<path d="M26.7451 17.2957C27.1647 16.8668 27.1571 16.1789 26.7282 15.7593C26.2993 15.3398 25.6114 15.3473 25.1918 15.7762C24.7723 16.2052 24.7798 16.893 25.2087 17.3126C25.6377 17.7322 26.3255 17.7246 26.7451 17.2957Z" fill="#0A0A0A"/>
<path d="M31.2691 9.56337C31.9684 8.84852 31.8399 7.58874 30.9821 6.74958C30.1243 5.91041 28.862 5.80964 28.1627 6.52449C27.4634 7.23934 27.5919 8.49912 28.4497 9.33829C29.3075 10.1775 30.5698 10.2782 31.2691 9.56337Z" fill="#0A0A0A"/>
<path d="M35.3549 8.49405C35.7745 8.06511 35.767 7.37729 35.338 6.95771C34.9091 6.53813 34.2213 6.54567 33.8017 6.97461C33.3821 7.40355 33.3897 8.09136 33.8186 8.51094C34.2475 8.93052 34.9353 8.92299 35.3549 8.49405Z" fill="#0A0A0A"/>
<path d="M35.2784 16.5995C36.3589 15.495 37.3505 15.776 38.2891 14.8165C39.2717 13.812 39.492 12.6159 38.0359 11.1914C35.5378 8.74761 31.8286 11.0633 30.7481 12.1678C29.6676 13.2723 27.4341 17.0315 29.9322 19.4753C31.3883 20.8997 32.5794 20.6532 33.562 19.6487C34.5446 18.6443 34.1979 17.704 35.2784 16.5995Z" fill="#0A0A0A"/>
</g>
<g clip-path="url(#clip1_4017_724)">
<path d="M46.3468 7.96106C47.0567 8.14848 47.784 7.72497 47.9715 7.01512C48.1589 6.30528 47.7354 5.57791 47.0255 5.39049C46.3157 5.20308 45.5883 5.62659 45.4009 6.33643C45.2135 7.04627 45.637 7.77364 46.3468 7.96106Z" fill="#0A0A0A"/>
<path d="M44.0797 8.7373C44.4346 8.83101 44.7983 8.61926 44.892 8.26434C44.9857 7.90942 44.7739 7.54573 44.419 7.45202C44.0641 7.35831 43.7004 7.57007 43.6067 7.92499C43.513 8.27991 43.7247 8.6436 44.0797 8.7373Z" fill="#0A0A0A"/>
<path d="M49.5603 8.80941C50.1519 8.96559 50.7833 8.51676 50.9708 7.80691C51.1582 7.09707 50.8306 6.39502 50.239 6.23884C49.6475 6.08266 49.016 6.5315 48.8286 7.24134C48.6412 7.95118 48.9688 8.65323 49.5603 8.80941Z" fill="#0A0A0A"/>
<path d="M51.3629 10.6603C51.7178 10.754 52.0815 10.5422 52.1752 10.1873C52.2689 9.83239 52.0572 9.46871 51.7022 9.375C51.3473 9.28128 50.9836 9.49304 50.8899 9.84796C50.7962 10.2029 51.0079 10.5666 51.3629 10.6603Z" fill="#0A0A0A"/>
<path d="M46.5378 12.9381C47.4517 13.1794 47.6017 13.7919 48.3957 14.0015C49.2269 14.2209 49.9298 13.9769 50.248 12.7719C50.7937 10.7048 48.4415 9.43066 47.5275 9.18935C46.6135 8.94803 43.9389 8.89493 43.3931 10.9621C43.075 12.167 43.5659 12.7263 44.397 12.9458C45.2282 13.1652 45.6238 12.6968 46.5378 12.9381Z" fill="#0A0A0A"/>
</g>
<g clip-path="url(#clip2_4017_724)">
<path d="M113.928 33.4064C114.652 34.004 115.723 33.9018 116.321 33.1782C116.918 32.4545 116.816 31.3834 116.093 30.7858C115.369 30.1882 114.298 30.2904 113.7 31.014C113.103 31.7377 113.205 32.8088 113.928 33.4064Z" fill="#0A0A0A"/>
<path d="M110.881 33.0936C111.243 33.3924 111.778 33.3413 112.077 32.9795C112.376 32.6177 112.325 32.0821 111.963 31.7833C111.601 31.4845 111.065 31.5356 110.767 31.8975C110.468 32.2593 110.519 32.7948 110.881 33.0936Z" fill="#0A0A0A"/>
<path d="M117.204 36.1116C117.807 36.6096 118.781 36.4266 119.378 35.703C119.976 34.9793 119.971 33.9889 119.368 33.4909C118.765 32.9929 117.792 33.1759 117.194 33.8995C116.597 34.6232 116.601 35.6136 117.204 36.1116Z" fill="#0A0A0A"/>
<path d="M118.306 39.2253C118.667 39.5241 119.203 39.473 119.502 39.1112C119.801 38.7493 119.749 38.2138 119.388 37.915C119.026 37.6162 118.49 37.6673 118.191 38.0291C117.893 38.3909 117.944 38.9265 118.306 39.2253Z" fill="#0A0A0A"/>
<path d="M111.954 39.6735C112.886 40.4429 112.732 41.2341 113.542 41.9026C114.389 42.6024 115.336 42.6954 116.35 41.467C118.091 39.3596 116.042 36.6212 115.11 35.8517C114.179 35.0823 111.102 33.5886 109.362 35.6961C108.348 36.9245 108.618 37.8365 109.465 38.5362C110.313 39.2359 111.023 38.904 111.954 39.6735Z" fill="#0A0A0A"/>
</g>
<defs>
<clipPath id="clip0_4017_724">
<rect width="17.3827" height="17.3827" fill="white" transform="translate(18.7593 13.03) rotate(-45.63)"/>
</clipPath>
<clipPath id="clip1_4017_724">
<rect width="10.6346" height="10.6346" fill="white" transform="translate(43.9375 3.20026) rotate(14.79)"/>
</clipPath>
<clipPath id="clip2_4017_724">
<rect width="13.5947" height="13.5947" fill="white" transform="translate(113.68 26.59) rotate(39.55)"/>
</clipPath>
</defs>
</svg>
