<svg width="60" height="47" viewBox="0 0 60 47" fill="none" xmlns="http://www.w3.org/2000/svg">
<path d="M49.981 4.48685C49.6373 6.24673 47.2165 8.71515 41.5344 11.9868C22.4867 22.9539 1.55026 26.1175 1.01066 21.4868M49.981 4.48685L52.1459 9.98682M49.981 4.48685C50.2581 3.06819 49.1856 2.10996 47.3838 1.56257M1.01066 21.4868C0.864054 20.2287 2.223 18.3953 5.53442 15.9868C16.5337 7.98648 29.284 2.98685 37.5338 1.48668C38.7399 1.26736 39.9702 1.11985 41.1652 1.04888M1.01066 21.4868C1.4601 23.0175 2.21331 25.4853 3.17372 28.4868M52.1459 9.98682C45.3683 16.4868 26.0854 29.2868 3.17372 28.4868M52.1459 9.98682L57.8533 24.4868M3.17372 28.4868C4.42005 32.3819 6.01531 37.1758 7.74844 41.9868M57.8533 24.4868L59.0342 27.4868C55.0342 35.1535 39.4342 49.4868 9.03418 45.4868C8.59947 44.3276 8.16988 43.1567 7.74844 41.9868M57.8533 24.4868C52.5564 31.8201 35.1198 45.5868 7.74844 41.9868M41.1652 1.04888L35.0342 5.48682C32.5342 7.48682 34.0342 10.5868 38.0342 8.98682C43.3905 6.84431 46.2673 2.70399 47.3838 1.56257M41.1652 1.04888C43.5286 0.908544 45.7544 1.06755 47.3838 1.56257M32.0342 29.4868L32.5342 26.9868C33.0342 24.4868 37.5342 24.4868 37.5338 27.4868C37.5342 30.4868 35.8616 33.332 35.5342 33.9868C35.0342 34.9868 34.0051 35.281 32.5342 34.9868C30.0342 34.4868 29.5342 34.4868 27.0342 33.4868C24.5342 32.4868 25.0342 28.9868 28.0342 28.9868C30.8342 29.3868 31.7008 29.4868 32.0342 29.4868Z" stroke="#083D77" stroke-width="1.5"/>
</svg>
