<svg width="24" height="17" viewBox="0 0 24 17" fill="none" xmlns="http://www.w3.org/2000/svg">
<path fill-rule="evenodd" clip-rule="evenodd" d="M13.5492 4.63682C13.9032 3.35208 14.3802 2.59635 14.8279 2.18831C15.2593 1.79512 15.6747 1.7094 16.0261 1.76592C16.7815 1.88743 17.5836 2.75985 17.5836 3.96658V5.00711L18.5707 4.6781C19.1641 4.48034 19.8317 4.48169 20.4468 4.64056C21.0676 4.80093 21.5746 5.1057 21.8723 5.4448C22.1574 5.76942 22.2231 6.07892 22.125 6.37719C22.0124 6.71941 21.6257 7.23076 20.59 7.77308C18.1923 9.02849 16.3919 9.87611 15.0691 10.3321C14.4077 10.5601 13.8993 10.6782 13.516 10.7103C13.1299 10.7427 12.9378 10.6824 12.8465 10.6288C12.7187 10.5539 12.4845 10.2805 12.5755 9.15132C12.6606 8.09395 13.0059 6.60882 13.5492 4.63682ZM16.2643 0.284953C17.6057 0.500707 18.6573 1.65202 18.9804 3.05865C19.6105 2.98362 20.2425 3.03856 20.8219 3.18823C21.6686 3.40695 22.4628 3.84384 22.9995 4.45508C23.5489 5.08081 23.851 5.93033 23.5499 6.84587C23.2632 7.71747 22.4836 8.47474 21.2858 9.10194C18.8812 10.361 16.9955 11.2547 15.558 11.7502C14.8392 11.998 14.199 12.1583 13.6413 12.2051C13.0865 12.2516 12.5454 12.1913 12.0874 11.9226C11.1166 11.353 10.9881 10.1756 11.0803 9.03093C11.1782 7.81448 11.5618 6.2028 12.1031 4.23837C12.5029 2.78753 13.0912 1.74161 13.8175 1.07968C14.56 0.402899 15.4273 0.15033 16.2643 0.284953ZM5.54888 12.4951C5.37489 11.8636 5.15231 11.5381 4.98494 11.3856C4.83387 11.2479 4.72479 11.243 4.65715 11.2538C4.46926 11.2841 4.1448 11.5595 4.1448 12.0498V13.0904L3.15765 12.7614C2.92251 12.683 2.64503 12.6804 2.38044 12.7487C2.11006 12.8186 1.91376 12.9462 1.81527 13.0584C1.73519 13.1496 1.74917 13.1842 1.75363 13.1952L1.7544 13.1972C1.77162 13.2496 1.87982 13.458 2.3822 13.7211C3.6331 14.376 4.55329 14.8078 5.21695 15.0366C5.54875 15.151 5.78288 15.2026 5.94146 15.2159C5.98302 15.2194 6.015 15.2199 6.03891 15.2191C6.05206 15.1548 6.06507 15.0255 6.04588 14.7872C6.00446 14.2728 5.83323 13.5271 5.54888 12.4951ZM6.02189 15.2741C6.02198 15.2742 6.02289 15.2729 6.02435 15.2696C6.02254 15.2724 6.02181 15.274 6.02189 15.2741ZM4.41895 9.77286C3.65096 9.89639 3.06007 10.4773 2.79605 11.2001C2.5225 11.1968 2.25475 11.232 2.00529 11.2964C1.509 11.4246 1.02556 11.6844 0.688118 12.0687C0.337954 12.4675 0.123695 13.0402 0.329498 13.6659C0.520846 14.2477 1.02192 14.702 1.6864 15.0499C2.9442 15.7085 3.94971 16.1864 4.72806 16.4547C5.11726 16.5889 5.48321 16.6828 5.81619 16.7107C6.14634 16.7383 6.51231 16.7068 6.83912 16.5151C7.54761 16.0994 7.58949 15.2684 7.54104 14.6668C7.48681 13.9933 7.27726 13.1211 6.995 12.0967C6.77523 11.2991 6.44129 10.6834 5.99536 10.277C5.53314 9.85567 4.97216 9.68389 4.41895 9.77286Z" fill="#083D77"/>
</svg>
