<svg width="109" height="109" viewBox="0 0 109 109" fill="none" xmlns="http://www.w3.org/2000/svg">
<mask id="mask0_2112_1163" style="mask-type:luminance" maskUnits="userSpaceOnUse" x="0" y="0" width="109" height="109">
<path d="M0 0H109V109H0V0Z" fill="white"/>
</mask>
<g mask="url(#mask0_2112_1163)">
<path d="M80.8716 64.8138C80.6902 70.6562 80.4109 76.4985 80.0386 82.3409C79.6879 87.8254 75.4312 92.2488 69.9639 92.827C54.7235 94.4397 39.4854 94.4397 24.2448 92.827C18.7799 92.2488 14.5206 87.8254 14.1704 82.3409C12.7023 59.3244 12.7023 36.3105 14.1704 13.2941C14.5206 7.80957 18.7799 3.38612 24.2448 2.80791C39.4854 1.19293 54.7235 1.19293 69.9639 2.80791C75.4312 3.38612 79.6879 7.80957 80.0386 13.2941C80.3766 18.5704 80.6366 23.8466 80.8177 29.1253" stroke="#083D77" stroke-width="3.19336" stroke-miterlimit="10" stroke-linecap="round" stroke-linejoin="round"/>
<path d="M37.1413 85.825C46.7746 86.3615 56.4079 86.1188 66.0391 85.1012C70.5673 84.6201 74.0927 80.9562 74.3823 76.4131C75.6021 57.3509 75.6021 38.2844 74.3823 19.2222C74.0927 14.6791 70.5673 11.0153 66.0391 10.5341C64.5616 10.3787 63.0863 10.2404 61.6088 10.1211C61.0979 12.1202 59.3884 13.6402 57.2722 13.8659C50.4938 14.5812 43.7132 14.5812 36.9369 13.8659C34.8208 13.6402 33.1113 12.1202 32.5982 10.1211C31.1229 10.2404 29.6476 10.3787 28.1701 10.5341C23.6419 11.0153 20.1143 14.6791 19.8248 19.2222C18.6092 38.2844 18.6092 57.3509 19.8248 76.4131C20.1143 80.9562 23.6419 84.6201 28.1701 85.1012C29.0493 85.1949 29.9286 85.28 30.8099 85.3609" stroke="#083D77" stroke-width="3.19336" stroke-miterlimit="10" stroke-linecap="round" stroke-linejoin="round"/>
<path d="M40.874 93.9468C44.1555 98.4143 49.0616 103.544 55.3229 105.673C74.1097 112.06 95.2241 99.9386 101.397 82.8088C106.237 69.3865 96.153 54.6338 96.153 54.6338" stroke="#083D77" stroke-width="3.19336" stroke-miterlimit="10" stroke-linecap="round" stroke-linejoin="round"/>
<path d="M13.3705 29.7965C9.37841 29.2964 6.28809 25.8927 6.28809 21.7656C6.28809 17.3766 9.78524 13.8035 14.145 13.6787" stroke="#083D77" stroke-width="3.19336" stroke-miterlimit="10" stroke-linecap="round" stroke-linejoin="round"/>
<path d="M13.1278 55.6562C9.25599 56.2592 6.28809 59.6092 6.28809 63.6529C6.28809 67.8556 9.49592 71.311 13.596 71.7055" stroke="#083D77" stroke-width="3.19336" stroke-miterlimit="10" stroke-linecap="round" stroke-linejoin="round"/>
<path d="M13.1255 55.4622C9.25344 54.8593 6.28809 51.5092 6.28809 47.4681C6.28809 43.4221 9.25834 40.0721 13.1327 39.4717" stroke="#083D77" stroke-width="3.19336" stroke-miterlimit="10" stroke-linecap="round" stroke-linejoin="round"/>
<path d="M40.2383 7.9209H53.9693" stroke="#083D77" stroke-width="3.19336" stroke-miterlimit="10" stroke-linecap="round" stroke-linejoin="round"/>
<path d="M93.9578 35.4951C94.143 36.6426 94.1047 37.8454 93.8066 39.044C92.4824 44.3833 93.3148 49.9184 96.1529 54.6318" stroke="#083D77" stroke-width="3.19336" stroke-miterlimit="10" stroke-linecap="round" stroke-linejoin="round"/>
<path d="M83.5475 68.5849C75.1745 58.3257 74.046 44.7113 76.5197 34.7544C77.7015 29.9793 82.5318 27.0712 87.3069 28.257C88.6268 28.5848 89.8022 29.1916 90.79 29.9963" stroke="#083D77" stroke-width="3.19336" stroke-miterlimit="10" stroke-linecap="round" stroke-linejoin="round"/>
<path d="M41.108 63.5741L32.8737 49.799C32.0802 48.4716 32.513 46.7523 33.8404 45.9589L37.9945 43.4757C39.3217 42.6823 41.041 43.1151 41.8344 44.4425L46.013 51.4325L54.5957 34.1177C55.2825 32.7322 56.9626 32.1657 58.3481 32.8525L62.6843 35.0021C64.0696 35.6888 64.6363 37.3688 63.9495 38.7543L51.856 63.1515C51.4011 64.0695 50.481 64.6656 49.4574 64.7058L43.6214 64.9353C42.5979 64.9756 41.6337 64.4536 41.108 63.5741Z" stroke="#083D77" stroke-width="3.19336" stroke-miterlimit="10" stroke-linejoin="round"/>
</g>
</svg>
