<svg width="109" height="109" viewBox="0 0 109 109" fill="none" xmlns="http://www.w3.org/2000/svg">
<mask id="mask0_2112_1062" style="mask-type:luminance" maskUnits="userSpaceOnUse" x="0" y="0" width="109" height="109">
<path d="M0 7.62939e-06H109V109H0V7.62939e-06Z" fill="white"/>
</mask>
<g mask="url(#mask0_2112_1062)">
<path d="M66.9845 86.3151C66.9845 86.3151 65.1109 95.4764 69.5486 100.808" stroke="#083D77" stroke-width="3.19336" stroke-miterlimit="10" stroke-linecap="round" stroke-linejoin="round"/>
<path d="M86.0863 86.3151C86.0863 86.3151 87.9602 95.4764 83.5225 100.808" stroke="#083D77" stroke-width="3.19336" stroke-miterlimit="10" stroke-linecap="round" stroke-linejoin="round"/>
<path d="M76.5352 86.3151V100.808" stroke="#083D77" stroke-width="3.19336" stroke-miterlimit="10" stroke-linecap="round" stroke-linejoin="round"/>
<path d="M33.0191 73.2666C33.0191 73.2666 29.8745 79.8234 30.748 100.808" stroke="#083D77" stroke-width="3.19336" stroke-miterlimit="10" stroke-linecap="round" stroke-linejoin="round"/>
<path d="M48.3246 73.2666C48.3246 73.2666 50.0267 90.5293 41.0078 100.808" stroke="#083D77" stroke-width="3.19336" stroke-miterlimit="10" stroke-linecap="round" stroke-linejoin="round"/>
<path d="M17.079 73.2666C17.079 73.2666 13.2608 90.5293 22.2799 100.808" stroke="#083D77" stroke-width="3.19336" stroke-miterlimit="10" stroke-linecap="round" stroke-linejoin="round"/>
<path d="M93.8601 13.8331C89.9334 2.2442 70.2836 8.91491 85.0865 30.1493C85.2604 30.3988 85.5487 30.5454 85.8531 30.5388C111.732 29.9779 105.536 10.1733 93.8601 13.8331Z" stroke="#083D77" stroke-width="3.19336" stroke-miterlimit="10" stroke-linecap="round" stroke-linejoin="round"/>
<path d="M95.685 82.3249C94.081 78.6214 91.9753 76.0259 90.2422 74.3432C85.6035 77.198 79.8172 78.1448 74.1841 76.4749C71.0625 75.5494 68.3389 73.9246 66.1338 71.8223H66.0404C66.0404 71.8223 55.343 77.6549 54.9279 94.102C54.8349 97.7805 57.8073 100.808 61.4869 100.808H91.5847C95.2643 100.808 98.2367 97.7805 98.1438 94.102C98.0911 92.0086 97.8696 90.0905 97.5267 88.3312" stroke="#083D77" stroke-width="3.19336" stroke-miterlimit="10" stroke-linecap="round" stroke-linejoin="round"/>
<path d="M107.385 46.3574C107.352 45.6572 107.004 45.0151 106.434 44.6064C102.301 41.6389 97.3483 40.8012 93.2812 42.8243C97.7705 46.9639 100.198 53.0496 99.6005 59.3037C100.211 59.1072 100.808 58.8549 101.386 58.5416C105.513 56.302 107.627 51.579 107.385 46.3574Z" stroke="#083D77" stroke-width="3.19336" stroke-miterlimit="10" stroke-linecap="round" stroke-linejoin="round"/>
<path d="M62.2325 48.2256C65.1397 42.6559 70.492 38.8769 76.5121 37.8527C74.2046 33.94 69.5955 31.9429 64.5127 32.1783C63.8125 32.2107 63.1705 32.5592 62.7617 33.1284C59.7131 37.3746 58.9112 42.4865 61.1508 46.6136C61.4644 47.1909 61.8273 47.7278 62.2325 48.2256Z" stroke="#083D77" stroke-width="3.19336" stroke-miterlimit="10" stroke-linecap="round" stroke-linejoin="round"/>
<path d="M98.8674 63.0797C95.75 73.5948 84.6989 79.5919 74.184 76.4746C63.6689 73.3572 57.6718 62.3063 60.7891 51.7912C63.9063 41.2761 74.9574 35.279 85.4725 38.3963C95.9876 41.5135 101.985 52.5646 98.8674 63.0797Z" stroke="#083D77" stroke-width="3.19336" stroke-miterlimit="10" stroke-linecap="round" stroke-linejoin="round"/>
<path d="M64.9358 32.1641C68.6047 32.0834 71.9973 33.1749 74.4145 35.3164L74.416 35.316C76.1285 11.8271 55.3555 21.3191 55.3555 21.3191L55.3589 21.3259C59.553 23.987 62.8356 27.7682 64.8874 32.1665L64.9358 32.1641Z" stroke="#083D77" stroke-width="3.19336" stroke-miterlimit="10" stroke-linecap="round" stroke-linejoin="round"/>
<path d="M14.025 36.834L14.0252 36.8338C16.9773 32.0567 20.1666 28.148 23.2721 24.9794C27.1988 20.9728 32.1964 18.4966 37.4542 17.6468L37.4619 17.6406C37.4619 17.6406 26.5523 5.94738 12.7463 18.5699C-1.05941 31.1924 8.99201 40.2074 14.025 36.834Z" stroke="#083D77" stroke-width="3.19336" stroke-miterlimit="10" stroke-linecap="round" stroke-linejoin="round"/>
<path d="M7.03843 51.4504C4.97743 57.2017 3.33434 63.7459 2.34291 71.1803C1.50455 77.4688 1.40981 83.2399 1.87306 88.5189C2.48363 95.4773 8.32535 100.808 15.3103 100.808H61.4865V100.807C57.8069 100.807 54.8345 97.7801 54.9273 94.1018C55.3425 77.6547 66.04 71.8219 66.04 71.8219H66.1335C60.911 66.8428 58.5969 59.1843 60.7888 51.791C61.1612 50.535 61.6476 49.3445 62.232 48.2256C61.8267 47.7278 61.4637 47.1907 61.1503 46.6133C58.9107 42.4865 59.7127 37.3745 62.7613 33.1284C63.17 32.5591 63.8121 32.2106 64.5123 32.1783C64.6379 32.1723 64.7629 32.1691 64.8878 32.1659C62.6374 27.3421 58.9103 23.2558 54.119 20.5811C44.0175 14.9422 31.3699 16.7171 23.2724 24.9794C18.4553 29.8946 13.4371 36.5896 9.41407 45.5472" stroke="#083D77" stroke-width="3.19336" stroke-miterlimit="10" stroke-linecap="round" stroke-linejoin="round"/>
<path d="M28.7105 32.0676L28.084 34.4922" stroke="#083D77" stroke-width="3.19336" stroke-miterlimit="10" stroke-linecap="round" stroke-linejoin="round"/>
<path d="M53.9468 38.5908L53.3203 41.0156" stroke="#083D77" stroke-width="3.19336" stroke-miterlimit="10" stroke-linecap="round" stroke-linejoin="round"/>
<path d="M39.8103 41.3557C39.3935 42.9687 37.7479 43.9385 36.1346 43.5214C34.5215 43.1046 33.5518 41.4587 33.9688 39.8456" stroke="#083D77" stroke-width="3.19336" stroke-miterlimit="10" stroke-linecap="round"/>
<path d="M45.6523 42.8662C45.2352 44.4795 43.5896 45.4492 41.9763 45.0321C40.3632 44.6153 39.3937 42.9694 39.8106 41.3564L40.5821 38.3721" stroke="#083D77" stroke-width="3.19336" stroke-miterlimit="10" stroke-linecap="round"/>
<path d="M38.3105 37.7851L42.8519 38.959" stroke="#083D77" stroke-width="3.19336" stroke-miterlimit="10" stroke-linecap="round"/>
<path d="M69.561 50.9665L68.9971 53.1484" stroke="#083D77" stroke-width="3.19336" stroke-miterlimit="10" stroke-linecap="round" stroke-linejoin="round"/>
<path d="M92.27 56.8366L91.7061 59.0186" stroke="#083D77" stroke-width="3.19336" stroke-miterlimit="10" stroke-linecap="round" stroke-linejoin="round"/>
<path d="M79.5488 59.3253C79.1734 60.7768 77.6926 61.6494 76.2411 61.2743C74.7896 60.8992 73.917 59.4183 74.2921 57.9666" stroke="#083D77" stroke-width="3.19336" stroke-miterlimit="10" stroke-linecap="round"/>
<path d="M84.8055 60.6838C84.4302 62.1353 82.9493 63.008 81.4978 62.6326C80.0463 62.2575 79.1737 60.7767 79.549 59.325" stroke="#083D77" stroke-width="3.19336" stroke-miterlimit="10" stroke-linecap="round"/>
</g>
</svg>
