<svg width="109" height="109" viewBox="0 0 109 109" fill="none" xmlns="http://www.w3.org/2000/svg">
<mask id="mask0_2112_1131" style="mask-type:luminance" maskUnits="userSpaceOnUse" x="0" y="0" width="109" height="109">
<path d="M0 7.62939e-06H109V109H0V7.62939e-06Z" fill="white"/>
</mask>
<g mask="url(#mask0_2112_1131)">
<path d="M81.4215 93.489C84.8669 94.9086 86.8758 96.6185 86.8758 98.4587C86.8758 103.401 72.3807 107.403 54.4998 107.403C36.6191 107.403 22.124 103.401 22.124 98.4587C22.124 94.2533 32.6312 90.7223 46.7891 89.7702" stroke="#083D77" stroke-width="3.19336" stroke-miterlimit="10" stroke-linecap="round" stroke-linejoin="round"/>
<path d="M75.2983 91.6035C71.5603 90.7368 67.1028 90.0986 62.21 89.7697" stroke="#083D77" stroke-width="3.19336" stroke-miterlimit="10" stroke-linecap="round" stroke-linejoin="round"/>
<path d="M39.1334 16.9002C43.5269 13.9521 48.8125 12.2337 54.4995 12.2337C69.7524 12.2337 82.1192 24.5982 82.1192 39.8511C82.1192 55.1041 69.7524 67.4707 54.4995 67.4707C39.2465 67.4707 26.8799 55.1041 26.8799 39.8511C26.8799 32.5909 29.6828 25.9815 34.2661 21.0525" stroke="#083D77" stroke-width="3.19336" stroke-miterlimit="10" stroke-linecap="round" stroke-linejoin="round"/>
<path d="M92.754 39.8516C92.754 18.7243 75.6269 1.59727 54.4996 1.59727C33.3722 1.59727 16.2451 18.7243 16.2451 39.8516C16.2451 56.3229 26.6557 70.3618 41.2553 75.75C43.1594 83.4575 46.787 91.1167 51.9501 97.2682C53.283 98.8559 55.7161 98.8559 57.049 97.2682C62.212 91.1167 65.8397 83.4575 67.7438 75.75C82.3436 70.3618 92.754 56.3229 92.754 39.8516Z" stroke="#083D77" stroke-width="3.19336" stroke-miterlimit="10" stroke-linecap="round" stroke-linejoin="round"/>
<path d="M72.1558 38.2741L68.5366 41.8025C67.4221 42.8885 66.9131 44.4528 67.1767 45.9865L68.031 50.9679C68.6933 54.8291 64.6412 57.7736 61.173 55.9504L56.6993 53.5988C55.3225 52.8741 53.6775 52.8741 52.3007 53.5988L47.8271 55.9504C44.3588 57.7736 40.3067 54.8291 40.969 50.9679L41.8233 45.9865C42.0869 44.4528 41.5779 42.8885 40.4634 41.8025L36.8442 38.2741C34.0394 35.5397 35.5878 30.7765 39.4639 30.213L44.4657 29.4859C46.0049 29.2622 47.3363 28.2955 48.0248 26.9004L50.2615 22.3677C51.1283 20.6116 52.814 19.7334 54.4999 19.7334C56.1858 19.7334 57.8717 20.6116 58.7385 22.3677L60.9752 26.9004C61.6637 28.2955 62.9951 29.2622 64.5343 29.4859L69.5361 30.213C73.4122 30.7765 74.9606 35.5397 72.1558 38.2741Z" stroke="#083D77" stroke-width="3.19336" stroke-miterlimit="10" stroke-linecap="round" stroke-linejoin="round"/>
</g>
</svg>
